<mxfile host="app.diagrams.net" agent="Mozilla/5.0 (X11; Linux x86_64; rv:138.0) Gecko/20100101 Firefox/138.0" version="27.0.6">
  <diagram name="Page-1" id="GqUmpZvGIh4dHvEs5y8a">
    <mxGraphModel dx="-128" dy="1026" grid="1" gridSize="10" guides="1" tooltips="1" connect="1" arrows="1" fold="1" page="1" pageScale="1" pageWidth="850" pageHeight="1100" math="0" shadow="0">
      <root>
        <mxCell id="0" />
        <mxCell id="1" parent="0" />
        <mxCell id="armBEsBEpPqoog4ruDf--1" value="Vehiculo" style="rounded=0;whiteSpace=wrap;html=1;" parent="1" vertex="1">
          <mxGeometry x="2720" y="218.58" width="160" height="60" as="geometry" />
        </mxCell>
        <mxCell id="armBEsBEpPqoog4ruDf--355" style="edgeStyle=orthogonalEdgeStyle;rounded=0;orthogonalLoop=1;jettySize=auto;html=1;entryX=0.75;entryY=0;entryDx=0;entryDy=0;exitX=0.5;exitY=1;exitDx=0;exitDy=0;endArrow=none;startFill=0;" parent="1" source="armBEsBEpPqoog4ruDf--2" target="armBEsBEpPqoog4ruDf--7" edge="1">
          <mxGeometry relative="1" as="geometry">
            <Array as="points">
              <mxPoint x="2600" y="615" />
              <mxPoint x="2461" y="615" />
            </Array>
          </mxGeometry>
        </mxCell>
        <mxCell id="armBEsBEpPqoog4ruDf--2" value="Vehiculo_Alquiler" style="rounded=0;whiteSpace=wrap;html=1;" parent="1" vertex="1">
          <mxGeometry x="2520" y="440" width="160" height="60" as="geometry" />
        </mxCell>
        <mxCell id="armBEsBEpPqoog4ruDf--3" value="Vehiculo_Venta" style="rounded=0;whiteSpace=wrap;html=1;" parent="1" vertex="1">
          <mxGeometry x="2920" y="440" width="160" height="60" as="geometry" />
        </mxCell>
        <mxCell id="armBEsBEpPqoog4ruDf--122" style="edgeStyle=orthogonalEdgeStyle;rounded=0;orthogonalLoop=1;jettySize=auto;html=1;endArrow=none;startFill=0;" parent="1" source="armBEsBEpPqoog4ruDf--4" edge="1">
          <mxGeometry relative="1" as="geometry">
            <mxPoint x="3520" y="359.52" as="targetPoint" />
          </mxGeometry>
        </mxCell>
        <mxCell id="armBEsBEpPqoog4ruDf--4" value="Persona" style="rounded=0;whiteSpace=wrap;html=1;" parent="1" vertex="1">
          <mxGeometry x="3440.49" y="219.51999999999998" width="160" height="60" as="geometry" />
        </mxCell>
        <mxCell id="armBEsBEpPqoog4ruDf--5" value="Empleado" style="rounded=0;whiteSpace=wrap;html=1;" parent="1" vertex="1">
          <mxGeometry x="3640" y="439.52" width="160" height="60" as="geometry" />
        </mxCell>
        <mxCell id="armBEsBEpPqoog4ruDf--389" style="edgeStyle=orthogonalEdgeStyle;rounded=0;orthogonalLoop=1;jettySize=auto;html=1;exitX=0.75;exitY=1;exitDx=0;exitDy=0;entryX=1;entryY=0.5;entryDx=0;entryDy=0;endArrow=none;startFill=0;" parent="1" source="armBEsBEpPqoog4ruDf--6" target="armBEsBEpPqoog4ruDf--8" edge="1">
          <mxGeometry relative="1" as="geometry" />
        </mxCell>
        <mxCell id="armBEsBEpPqoog4ruDf--6" value="Cliente" style="rounded=0;whiteSpace=wrap;html=1;" parent="1" vertex="1">
          <mxGeometry x="3240" y="439.52" width="160" height="60" as="geometry" />
        </mxCell>
        <mxCell id="armBEsBEpPqoog4ruDf--375" style="edgeStyle=orthogonalEdgeStyle;rounded=0;orthogonalLoop=1;jettySize=auto;html=1;entryX=0;entryY=0.5;entryDx=0;entryDy=0;endArrow=none;startFill=0;" parent="1" target="armBEsBEpPqoog4ruDf--374" edge="1">
          <mxGeometry relative="1" as="geometry">
            <mxPoint x="2480" y="919" as="sourcePoint" />
            <Array as="points">
              <mxPoint x="2480" y="720" />
            </Array>
          </mxGeometry>
        </mxCell>
        <mxCell id="armBEsBEpPqoog4ruDf--7" value="Alquiler" style="rounded=0;whiteSpace=wrap;html=1;" parent="1" vertex="1">
          <mxGeometry x="2341" y="919" width="160" height="60" as="geometry" />
        </mxCell>
        <mxCell id="armBEsBEpPqoog4ruDf--354" style="edgeStyle=orthogonalEdgeStyle;rounded=0;orthogonalLoop=1;jettySize=auto;html=1;entryX=1.012;entryY=0.013;entryDx=0;entryDy=0;endArrow=none;startFill=0;entryPerimeter=0;" parent="1" target="armBEsBEpPqoog4ruDf--387" edge="1">
          <mxGeometry relative="1" as="geometry">
            <mxPoint x="3140" y="920" as="sourcePoint" />
            <mxPoint x="3000" y="495" as="targetPoint" />
            <Array as="points">
              <mxPoint x="3140" y="615" />
              <mxPoint x="3000" y="615" />
            </Array>
          </mxGeometry>
        </mxCell>
        <mxCell id="armBEsBEpPqoog4ruDf--392" style="edgeStyle=orthogonalEdgeStyle;rounded=0;orthogonalLoop=1;jettySize=auto;html=1;exitX=0.75;exitY=1;exitDx=0;exitDy=0;endArrow=none;startFill=0;" parent="1" source="armBEsBEpPqoog4ruDf--8" edge="1">
          <mxGeometry relative="1" as="geometry">
            <mxPoint x="3759.9999999999995" y="500" as="targetPoint" />
          </mxGeometry>
        </mxCell>
        <mxCell id="armBEsBEpPqoog4ruDf--8" value="Venta" style="rounded=0;whiteSpace=wrap;html=1;" parent="1" vertex="1">
          <mxGeometry x="3100" y="919" width="160" height="60" as="geometry" />
        </mxCell>
        <mxCell id="armBEsBEpPqoog4ruDf--274" style="edgeStyle=orthogonalEdgeStyle;rounded=0;orthogonalLoop=1;jettySize=auto;html=1;entryX=0.5;entryY=0;entryDx=0;entryDy=0;endArrow=none;startFill=0;" parent="1" source="armBEsBEpPqoog4ruDf--9" target="armBEsBEpPqoog4ruDf--12" edge="1">
          <mxGeometry relative="1" as="geometry" />
        </mxCell>
        <mxCell id="armBEsBEpPqoog4ruDf--9" value="Tarjeta" style="rounded=0;whiteSpace=wrap;html=1;" parent="1" vertex="1">
          <mxGeometry x="2714.49" y="1258.5" width="160" height="60" as="geometry" />
        </mxCell>
        <mxCell id="armBEsBEpPqoog4ruDf--10" value="Cuota_Financiacion" style="rounded=0;whiteSpace=wrap;html=1;" parent="1" vertex="1">
          <mxGeometry x="3098" y="1260" width="160" height="60" as="geometry" />
        </mxCell>
        <mxCell id="armBEsBEpPqoog4ruDf--273" style="edgeStyle=orthogonalEdgeStyle;rounded=0;orthogonalLoop=1;jettySize=auto;html=1;entryX=0;entryY=0.5;entryDx=0;entryDy=0;exitX=0.5;exitY=0;exitDx=0;exitDy=0;endArrow=none;startFill=0;" parent="1" source="armBEsBEpPqoog4ruDf--11" target="armBEsBEpPqoog4ruDf--9" edge="1">
          <mxGeometry relative="1" as="geometry" />
        </mxCell>
        <mxCell id="armBEsBEpPqoog4ruDf--11" value="Entidad_Bancaria" style="rounded=0;whiteSpace=wrap;html=1;" parent="1" vertex="1">
          <mxGeometry x="2538" y="1457.5" width="160" height="60" as="geometry" />
        </mxCell>
        <mxCell id="armBEsBEpPqoog4ruDf--12" value="Banco" style="rounded=0;whiteSpace=wrap;html=1;" parent="1" vertex="1">
          <mxGeometry x="2898" y="1458.5" width="160" height="60" as="geometry" />
        </mxCell>
        <mxCell id="armBEsBEpPqoog4ruDf--13" value="" style="group" parent="1" vertex="1" connectable="0">
          <mxGeometry x="2766.630381056767" y="191.0806350946109" width="8" height="28" as="geometry" />
        </mxCell>
        <mxCell id="armBEsBEpPqoog4ruDf--14" value="" style="ellipse;whiteSpace=wrap;html=1;aspect=fixed;fillColor=light-dark(#FFFFFF,#FFFFFF);" parent="armBEsBEpPqoog4ruDf--13" vertex="1">
          <mxGeometry width="8" height="8" as="geometry" />
        </mxCell>
        <mxCell id="armBEsBEpPqoog4ruDf--15" style="edgeStyle=orthogonalEdgeStyle;rounded=0;orthogonalLoop=1;jettySize=auto;html=1;endArrow=none;startFill=0;" parent="armBEsBEpPqoog4ruDf--13" edge="1">
          <mxGeometry relative="1" as="geometry">
            <mxPoint x="4" y="28" as="targetPoint" />
            <mxPoint x="4" y="8" as="sourcePoint" />
          </mxGeometry>
        </mxCell>
        <mxCell id="armBEsBEpPqoog4ruDf--16" value="&lt;font style=&quot;font-size: 8px;&quot;&gt;patente&lt;/font&gt;" style="text;html=1;align=center;verticalAlign=middle;resizable=0;points=[];autosize=1;strokeColor=none;fillColor=none;rotation=-60;" parent="1" vertex="1">
          <mxGeometry x="2746.000381056767" y="154.06063509461097" width="60" height="30" as="geometry" />
        </mxCell>
        <mxCell id="armBEsBEpPqoog4ruDf--17" value="" style="group" parent="1" vertex="1" connectable="0">
          <mxGeometry x="2786.630381056767" y="191.0806350946109" width="8" height="28" as="geometry" />
        </mxCell>
        <mxCell id="armBEsBEpPqoog4ruDf--18" value="" style="ellipse;whiteSpace=wrap;html=1;aspect=fixed;" parent="armBEsBEpPqoog4ruDf--17" vertex="1">
          <mxGeometry width="8" height="8" as="geometry" />
        </mxCell>
        <mxCell id="armBEsBEpPqoog4ruDf--19" style="edgeStyle=orthogonalEdgeStyle;rounded=0;orthogonalLoop=1;jettySize=auto;html=1;endArrow=none;startFill=0;" parent="armBEsBEpPqoog4ruDf--17" edge="1">
          <mxGeometry relative="1" as="geometry">
            <mxPoint x="4" y="28" as="targetPoint" />
            <mxPoint x="4" y="8" as="sourcePoint" />
          </mxGeometry>
        </mxCell>
        <mxCell id="armBEsBEpPqoog4ruDf--20" value="&lt;font style=&quot;font-size: 8px;&quot;&gt;marca&lt;/font&gt;" style="text;html=1;align=center;verticalAlign=middle;resizable=0;points=[];autosize=1;strokeColor=none;fillColor=none;rotation=-60;" parent="1" vertex="1">
          <mxGeometry x="2767.630381056767" y="161.62063509461098" width="50" height="30" as="geometry" />
        </mxCell>
        <mxCell id="armBEsBEpPqoog4ruDf--21" value="" style="group" parent="1" vertex="1" connectable="0">
          <mxGeometry x="2806.630381056767" y="191.0806350946109" width="8" height="28" as="geometry" />
        </mxCell>
        <mxCell id="armBEsBEpPqoog4ruDf--22" value="" style="ellipse;whiteSpace=wrap;html=1;aspect=fixed;" parent="armBEsBEpPqoog4ruDf--21" vertex="1">
          <mxGeometry width="8" height="8" as="geometry" />
        </mxCell>
        <mxCell id="armBEsBEpPqoog4ruDf--23" style="edgeStyle=orthogonalEdgeStyle;rounded=0;orthogonalLoop=1;jettySize=auto;html=1;endArrow=none;startFill=0;" parent="armBEsBEpPqoog4ruDf--21" edge="1">
          <mxGeometry relative="1" as="geometry">
            <mxPoint x="4" y="28" as="targetPoint" />
            <mxPoint x="4" y="8" as="sourcePoint" />
          </mxGeometry>
        </mxCell>
        <mxCell id="armBEsBEpPqoog4ruDf--24" value="" style="group" parent="1" vertex="1" connectable="0">
          <mxGeometry x="2826.630381056767" y="191.0806350946109" width="8" height="28" as="geometry" />
        </mxCell>
        <mxCell id="armBEsBEpPqoog4ruDf--25" value="" style="ellipse;whiteSpace=wrap;html=1;aspect=fixed;" parent="armBEsBEpPqoog4ruDf--24" vertex="1">
          <mxGeometry width="8" height="8" as="geometry" />
        </mxCell>
        <mxCell id="armBEsBEpPqoog4ruDf--26" style="edgeStyle=orthogonalEdgeStyle;rounded=0;orthogonalLoop=1;jettySize=auto;html=1;endArrow=none;startFill=0;" parent="armBEsBEpPqoog4ruDf--24" edge="1">
          <mxGeometry relative="1" as="geometry">
            <mxPoint x="4" y="28" as="targetPoint" />
            <mxPoint x="4" y="8" as="sourcePoint" />
          </mxGeometry>
        </mxCell>
        <mxCell id="armBEsBEpPqoog4ruDf--28" value="&lt;font style=&quot;font-size: 8px;&quot;&gt;modelo&lt;/font&gt;" style="text;html=1;align=center;verticalAlign=middle;resizable=0;points=[];autosize=1;strokeColor=none;fillColor=none;rotation=-60;" parent="1" vertex="1">
          <mxGeometry x="2790.4903810567666" y="156.06063509461097" width="50" height="30" as="geometry" />
        </mxCell>
        <mxCell id="armBEsBEpPqoog4ruDf--29" value="&lt;font style=&quot;font-size: 8px;&quot;&gt;kms&lt;/font&gt;" style="text;html=1;align=center;verticalAlign=middle;resizable=0;points=[];autosize=1;strokeColor=none;fillColor=none;rotation=-60;" parent="1" vertex="1">
          <mxGeometry x="2811.0003810567664" y="163.06063509461097" width="40" height="30" as="geometry" />
        </mxCell>
        <mxCell id="armBEsBEpPqoog4ruDf--31" value="" style="endArrow=classic;startArrow=classic;html=1;rounded=0;exitX=0.5;exitY=0;exitDx=0;exitDy=0;entryX=0.5;entryY=0;entryDx=0;entryDy=0;" parent="1" source="armBEsBEpPqoog4ruDf--2" target="armBEsBEpPqoog4ruDf--3" edge="1">
          <mxGeometry width="50" height="50" relative="1" as="geometry">
            <mxPoint x="2850" y="430" as="sourcePoint" />
            <mxPoint x="2900" y="380" as="targetPoint" />
            <Array as="points">
              <mxPoint x="2600" y="360" />
              <mxPoint x="3000" y="360" />
            </Array>
          </mxGeometry>
        </mxCell>
        <mxCell id="armBEsBEpPqoog4ruDf--32" value="" style="endArrow=none;html=1;rounded=0;exitX=0.5;exitY=1;exitDx=0;exitDy=0;startFill=0;" parent="1" source="armBEsBEpPqoog4ruDf--1" edge="1">
          <mxGeometry width="50" height="50" relative="1" as="geometry">
            <mxPoint x="2800" y="350" as="sourcePoint" />
            <mxPoint x="2800" y="360" as="targetPoint" />
          </mxGeometry>
        </mxCell>
        <mxCell id="armBEsBEpPqoog4ruDf--33" value="(T,E)" style="text;html=1;align=center;verticalAlign=middle;resizable=0;points=[];autosize=1;strokeColor=none;fillColor=none;" parent="1" vertex="1">
          <mxGeometry x="2804" y="288" width="60" height="30" as="geometry" />
        </mxCell>
        <mxCell id="armBEsBEpPqoog4ruDf--45" value="" style="group" parent="1" vertex="1" connectable="0">
          <mxGeometry x="2526" y="412.00063509461097" width="8" height="28" as="geometry" />
        </mxCell>
        <mxCell id="armBEsBEpPqoog4ruDf--46" value="" style="ellipse;whiteSpace=wrap;html=1;aspect=fixed;" parent="armBEsBEpPqoog4ruDf--45" vertex="1">
          <mxGeometry width="8" height="8" as="geometry" />
        </mxCell>
        <mxCell id="armBEsBEpPqoog4ruDf--47" style="edgeStyle=orthogonalEdgeStyle;rounded=0;orthogonalLoop=1;jettySize=auto;html=1;endArrow=none;startFill=0;" parent="armBEsBEpPqoog4ruDf--45" edge="1">
          <mxGeometry relative="1" as="geometry">
            <mxPoint x="4" y="28" as="targetPoint" />
            <mxPoint x="4" y="8" as="sourcePoint" />
          </mxGeometry>
        </mxCell>
        <mxCell id="armBEsBEpPqoog4ruDf--48" value="" style="group" parent="1" vertex="1" connectable="0">
          <mxGeometry x="2546" y="412.00063509461097" width="8" height="28" as="geometry" />
        </mxCell>
        <mxCell id="armBEsBEpPqoog4ruDf--49" value="" style="ellipse;whiteSpace=wrap;html=1;aspect=fixed;" parent="armBEsBEpPqoog4ruDf--48" vertex="1">
          <mxGeometry width="8" height="8" as="geometry" />
        </mxCell>
        <mxCell id="armBEsBEpPqoog4ruDf--50" style="edgeStyle=orthogonalEdgeStyle;rounded=0;orthogonalLoop=1;jettySize=auto;html=1;endArrow=none;startFill=0;" parent="armBEsBEpPqoog4ruDf--48" edge="1">
          <mxGeometry relative="1" as="geometry">
            <mxPoint x="4" y="28" as="targetPoint" />
            <mxPoint x="4" y="8" as="sourcePoint" />
          </mxGeometry>
        </mxCell>
        <mxCell id="armBEsBEpPqoog4ruDf--51" value="" style="group" parent="1" vertex="1" connectable="0">
          <mxGeometry x="2566" y="412.00063509461097" width="8" height="28" as="geometry" />
        </mxCell>
        <mxCell id="armBEsBEpPqoog4ruDf--52" value="" style="ellipse;whiteSpace=wrap;html=1;aspect=fixed;" parent="armBEsBEpPqoog4ruDf--51" vertex="1">
          <mxGeometry width="8" height="8" as="geometry" />
        </mxCell>
        <mxCell id="armBEsBEpPqoog4ruDf--53" style="edgeStyle=orthogonalEdgeStyle;rounded=0;orthogonalLoop=1;jettySize=auto;html=1;endArrow=none;startFill=0;" parent="armBEsBEpPqoog4ruDf--51" edge="1">
          <mxGeometry relative="1" as="geometry">
            <mxPoint x="4" y="28" as="targetPoint" />
            <mxPoint x="4" y="8" as="sourcePoint" />
          </mxGeometry>
        </mxCell>
        <mxCell id="armBEsBEpPqoog4ruDf--54" value="&lt;font style=&quot;font-size: 8px;&quot;&gt;req_registro&lt;/font&gt;" style="text;html=1;align=center;verticalAlign=middle;resizable=0;points=[];autosize=1;strokeColor=none;fillColor=none;rotation=-60;" parent="1" vertex="1">
          <mxGeometry x="2521.9999999999995" y="365.00063509461097" width="80" height="30" as="geometry" />
        </mxCell>
        <mxCell id="armBEsBEpPqoog4ruDf--55" value="&lt;font style=&quot;font-size: 8px;&quot;&gt;precio_alq&lt;/font&gt;" style="text;html=1;align=center;verticalAlign=middle;resizable=0;points=[];autosize=1;strokeColor=none;fillColor=none;rotation=-60;" parent="1" vertex="1">
          <mxGeometry x="2543.9999999999995" y="369.00063509461097" width="70" height="30" as="geometry" />
        </mxCell>
        <mxCell id="armBEsBEpPqoog4ruDf--56" value="&lt;font style=&quot;font-size: 8px;&quot;&gt;estado&lt;/font&gt;" style="text;html=1;align=center;verticalAlign=middle;resizable=0;points=[];autosize=1;strokeColor=none;fillColor=none;rotation=-60;" parent="1" vertex="1">
          <mxGeometry x="2510.000381056767" y="377.00063509461097" width="50" height="30" as="geometry" />
        </mxCell>
        <mxCell id="armBEsBEpPqoog4ruDf--57" value="" style="group" parent="1" vertex="1" connectable="0">
          <mxGeometry x="3036" y="412" width="8" height="28" as="geometry" />
        </mxCell>
        <mxCell id="armBEsBEpPqoog4ruDf--58" value="" style="ellipse;whiteSpace=wrap;html=1;aspect=fixed;" parent="armBEsBEpPqoog4ruDf--57" vertex="1">
          <mxGeometry width="8" height="8" as="geometry" />
        </mxCell>
        <mxCell id="armBEsBEpPqoog4ruDf--59" style="edgeStyle=orthogonalEdgeStyle;rounded=0;orthogonalLoop=1;jettySize=auto;html=1;endArrow=none;startFill=0;" parent="armBEsBEpPqoog4ruDf--57" edge="1">
          <mxGeometry relative="1" as="geometry">
            <mxPoint x="4" y="28" as="targetPoint" />
            <mxPoint x="4" y="8" as="sourcePoint" />
          </mxGeometry>
        </mxCell>
        <mxCell id="armBEsBEpPqoog4ruDf--60" value="&lt;font style=&quot;font-size: 8px;&quot;&gt;precio_venta&lt;/font&gt;" style="text;html=1;align=center;verticalAlign=middle;resizable=0;points=[];autosize=1;strokeColor=none;fillColor=none;rotation=-60;" parent="1" vertex="1">
          <mxGeometry x="3012.000381056767" y="366.00063509461097" width="80" height="30" as="geometry" />
        </mxCell>
        <mxCell id="armBEsBEpPqoog4ruDf--61" value="" style="group" parent="1" vertex="1" connectable="0">
          <mxGeometry x="3450.1203810567667" y="191.520762113533" width="8" height="28" as="geometry" />
        </mxCell>
        <mxCell id="armBEsBEpPqoog4ruDf--62" value="" style="ellipse;whiteSpace=wrap;html=1;aspect=fixed;fillColor=light-dark(#FFFFFF,#FFFFFF);" parent="armBEsBEpPqoog4ruDf--61" vertex="1">
          <mxGeometry width="8" height="8" as="geometry" />
        </mxCell>
        <mxCell id="armBEsBEpPqoog4ruDf--63" style="edgeStyle=orthogonalEdgeStyle;rounded=0;orthogonalLoop=1;jettySize=auto;html=1;endArrow=none;startFill=0;" parent="armBEsBEpPqoog4ruDf--61" edge="1">
          <mxGeometry relative="1" as="geometry">
            <mxPoint x="4" y="28" as="targetPoint" />
            <mxPoint x="4" y="8" as="sourcePoint" />
          </mxGeometry>
        </mxCell>
        <mxCell id="armBEsBEpPqoog4ruDf--64" value="&lt;font style=&quot;font-size: 8px;&quot;&gt;DNI&lt;/font&gt;" style="text;html=1;align=center;verticalAlign=middle;resizable=0;points=[];autosize=1;strokeColor=none;fillColor=none;rotation=-60;" parent="1" vertex="1">
          <mxGeometry x="3434.4903810567666" y="163.52076211353312" width="40" height="30" as="geometry" />
        </mxCell>
        <mxCell id="armBEsBEpPqoog4ruDf--65" value="" style="group" parent="1" vertex="1" connectable="0">
          <mxGeometry x="3470.1203810567667" y="191.520762113533" width="8" height="28" as="geometry" />
        </mxCell>
        <mxCell id="armBEsBEpPqoog4ruDf--66" value="" style="ellipse;whiteSpace=wrap;html=1;aspect=fixed;fillColor=light-dark(#FFFFFF,#FFFFFF);" parent="armBEsBEpPqoog4ruDf--65" vertex="1">
          <mxGeometry width="8" height="8" as="geometry" />
        </mxCell>
        <mxCell id="armBEsBEpPqoog4ruDf--67" style="edgeStyle=orthogonalEdgeStyle;rounded=0;orthogonalLoop=1;jettySize=auto;html=1;endArrow=none;startFill=0;" parent="armBEsBEpPqoog4ruDf--65" edge="1">
          <mxGeometry relative="1" as="geometry">
            <mxPoint x="4" y="28" as="targetPoint" />
            <mxPoint x="4" y="8" as="sourcePoint" />
          </mxGeometry>
        </mxCell>
        <mxCell id="armBEsBEpPqoog4ruDf--68" value="&lt;font style=&quot;font-size: 8px;&quot;&gt;CUIL&lt;/font&gt;" style="text;html=1;align=center;verticalAlign=middle;resizable=0;points=[];autosize=1;strokeColor=none;fillColor=none;rotation=-60;" parent="1" vertex="1">
          <mxGeometry x="3456.4903810567666" y="162.52076211353324" width="40" height="30" as="geometry" />
        </mxCell>
        <mxCell id="armBEsBEpPqoog4ruDf--69" value="" style="group" parent="1" vertex="1" connectable="0">
          <mxGeometry x="3490.1203810567667" y="191.520762113533" width="8" height="28" as="geometry" />
        </mxCell>
        <mxCell id="armBEsBEpPqoog4ruDf--70" value="" style="ellipse;whiteSpace=wrap;html=1;aspect=fixed;" parent="armBEsBEpPqoog4ruDf--69" vertex="1">
          <mxGeometry width="8" height="8" as="geometry" />
        </mxCell>
        <mxCell id="armBEsBEpPqoog4ruDf--71" style="edgeStyle=orthogonalEdgeStyle;rounded=0;orthogonalLoop=1;jettySize=auto;html=1;endArrow=none;startFill=0;" parent="armBEsBEpPqoog4ruDf--69" edge="1">
          <mxGeometry relative="1" as="geometry">
            <mxPoint x="4" y="28" as="targetPoint" />
            <mxPoint x="4" y="8" as="sourcePoint" />
          </mxGeometry>
        </mxCell>
        <mxCell id="armBEsBEpPqoog4ruDf--72" value="" style="group" parent="1" vertex="1" connectable="0">
          <mxGeometry x="3510.1203810567667" y="191.520762113533" width="8" height="28" as="geometry" />
        </mxCell>
        <mxCell id="armBEsBEpPqoog4ruDf--73" value="" style="ellipse;whiteSpace=wrap;html=1;aspect=fixed;" parent="armBEsBEpPqoog4ruDf--72" vertex="1">
          <mxGeometry width="8" height="8" as="geometry" />
        </mxCell>
        <mxCell id="armBEsBEpPqoog4ruDf--74" style="edgeStyle=orthogonalEdgeStyle;rounded=0;orthogonalLoop=1;jettySize=auto;html=1;endArrow=none;startFill=0;" parent="armBEsBEpPqoog4ruDf--72" edge="1">
          <mxGeometry relative="1" as="geometry">
            <mxPoint x="4" y="28" as="targetPoint" />
            <mxPoint x="4" y="8" as="sourcePoint" />
          </mxGeometry>
        </mxCell>
        <mxCell id="armBEsBEpPqoog4ruDf--75" value="&lt;font style=&quot;font-size: 8px;&quot;&gt;nombre&lt;/font&gt;" style="text;html=1;align=center;verticalAlign=middle;resizable=0;points=[];autosize=1;strokeColor=none;fillColor=none;rotation=-60;" parent="1" vertex="1">
          <mxGeometry x="3474.4903810567666" y="156.50076211353314" width="50" height="30" as="geometry" />
        </mxCell>
        <mxCell id="armBEsBEpPqoog4ruDf--76" value="&lt;font style=&quot;font-size: 8px;&quot;&gt;apellido&lt;/font&gt;" style="text;html=1;align=center;verticalAlign=middle;resizable=0;points=[];autosize=1;strokeColor=none;fillColor=none;rotation=-60;" parent="1" vertex="1">
          <mxGeometry x="3490.490381056766" y="152.52076211353312" width="60" height="30" as="geometry" />
        </mxCell>
        <mxCell id="armBEsBEpPqoog4ruDf--95" value="" style="endArrow=none;html=1;rounded=0;" parent="1" edge="1">
          <mxGeometry width="50" height="50" relative="1" as="geometry">
            <mxPoint x="3573.49" y="219.5184757729337" as="sourcePoint" />
            <mxPoint x="3583.49" y="200.47872981077808" as="targetPoint" />
          </mxGeometry>
        </mxCell>
        <mxCell id="armBEsBEpPqoog4ruDf--96" value="&lt;font style=&quot;font-size: 10px;&quot;&gt;dirección&lt;/font&gt;" style="ellipse;whiteSpace=wrap;html=1;" parent="1" vertex="1">
          <mxGeometry x="3565.49" y="180.51872981077804" width="76" height="24" as="geometry" />
        </mxCell>
        <mxCell id="armBEsBEpPqoog4ruDf--97" value="" style="endArrow=none;html=1;rounded=0;exitX=0.75;exitY=0;exitDx=0;exitDy=0;" parent="1" edge="1">
          <mxGeometry width="50" height="50" relative="1" as="geometry">
            <mxPoint x="3596.49" y="180.51872981077804" as="sourcePoint" />
            <mxPoint x="3609.49" y="157.51872981077804" as="targetPoint" />
          </mxGeometry>
        </mxCell>
        <mxCell id="armBEsBEpPqoog4ruDf--98" value="" style="endArrow=none;html=1;rounded=0;exitX=0.75;exitY=0;exitDx=0;exitDy=0;" parent="1" edge="1">
          <mxGeometry width="50" height="50" relative="1" as="geometry">
            <mxPoint x="3626.49" y="183.51872981077804" as="sourcePoint" />
            <mxPoint x="3636.49" y="170.51872981077804" as="targetPoint" />
          </mxGeometry>
        </mxCell>
        <mxCell id="armBEsBEpPqoog4ruDf--99" value="" style="endArrow=none;html=1;rounded=0;exitX=1;exitY=0.5;exitDx=0;exitDy=0;" parent="1" source="armBEsBEpPqoog4ruDf--96" edge="1">
          <mxGeometry width="50" height="50" relative="1" as="geometry">
            <mxPoint x="3641.49" y="204.51872981077804" as="sourcePoint" />
            <mxPoint x="3656.49" y="192.51872981077804" as="targetPoint" />
          </mxGeometry>
        </mxCell>
        <mxCell id="armBEsBEpPqoog4ruDf--100" value="" style="endArrow=none;html=1;rounded=0;entryX=1;entryY=1;entryDx=0;entryDy=0;" parent="1" target="armBEsBEpPqoog4ruDf--96" edge="1">
          <mxGeometry width="50" height="50" relative="1" as="geometry">
            <mxPoint x="3646.49" y="210.51872981077804" as="sourcePoint" />
            <mxPoint x="3636.49" y="190.51872981077804" as="targetPoint" />
          </mxGeometry>
        </mxCell>
        <mxCell id="armBEsBEpPqoog4ruDf--101" value="" style="group" parent="1" vertex="1" connectable="0">
          <mxGeometry x="3607.49" y="150.51999999999998" width="8" height="28" as="geometry" />
        </mxCell>
        <mxCell id="armBEsBEpPqoog4ruDf--102" value="" style="ellipse;whiteSpace=wrap;html=1;aspect=fixed;" parent="armBEsBEpPqoog4ruDf--101" vertex="1">
          <mxGeometry width="8" height="8" as="geometry" />
        </mxCell>
        <mxCell id="armBEsBEpPqoog4ruDf--103" value="" style="group" parent="1" vertex="1" connectable="0">
          <mxGeometry x="3634.49" y="163.51999999999998" width="8" height="28" as="geometry" />
        </mxCell>
        <mxCell id="armBEsBEpPqoog4ruDf--104" value="" style="ellipse;whiteSpace=wrap;html=1;aspect=fixed;" parent="armBEsBEpPqoog4ruDf--103" vertex="1">
          <mxGeometry width="8" height="8" as="geometry" />
        </mxCell>
        <mxCell id="armBEsBEpPqoog4ruDf--105" value="" style="group" parent="1" vertex="1" connectable="0">
          <mxGeometry x="3655.49" y="188.51999999999998" width="8" height="28" as="geometry" />
        </mxCell>
        <mxCell id="armBEsBEpPqoog4ruDf--106" value="" style="ellipse;whiteSpace=wrap;html=1;aspect=fixed;" parent="armBEsBEpPqoog4ruDf--105" vertex="1">
          <mxGeometry width="8" height="8" as="geometry" />
        </mxCell>
        <mxCell id="armBEsBEpPqoog4ruDf--107" value="" style="group" parent="1" vertex="1" connectable="0">
          <mxGeometry x="3644.49" y="207.51999999999998" width="8" height="28" as="geometry" />
        </mxCell>
        <mxCell id="armBEsBEpPqoog4ruDf--108" value="" style="ellipse;whiteSpace=wrap;html=1;aspect=fixed;" parent="armBEsBEpPqoog4ruDf--107" vertex="1">
          <mxGeometry width="8" height="8" as="geometry" />
        </mxCell>
        <mxCell id="armBEsBEpPqoog4ruDf--109" value="&lt;font style=&quot;font-size: 8px;&quot;&gt;calle&lt;/font&gt;" style="text;html=1;align=center;verticalAlign=middle;resizable=0;points=[];autosize=1;strokeColor=none;fillColor=none;rotation=0;" parent="1" vertex="1">
          <mxGeometry x="3605.49" y="136.51999999999998" width="50" height="30" as="geometry" />
        </mxCell>
        <mxCell id="armBEsBEpPqoog4ruDf--110" value="&lt;font style=&quot;font-size: 8px;&quot;&gt;numero&lt;/font&gt;" style="text;html=1;align=center;verticalAlign=middle;resizable=0;points=[];autosize=1;strokeColor=none;fillColor=none;rotation=0;" parent="1" vertex="1">
          <mxGeometry x="3634.49" y="149.51999999999998" width="50" height="30" as="geometry" />
        </mxCell>
        <mxCell id="armBEsBEpPqoog4ruDf--111" value="&lt;font style=&quot;font-size: 8px;&quot;&gt;piso(0,1)&lt;/font&gt;" style="text;html=1;align=center;verticalAlign=middle;resizable=0;points=[];autosize=1;strokeColor=none;fillColor=none;rotation=0;" parent="1" vertex="1">
          <mxGeometry x="3653.49" y="174.51999999999998" width="70" height="30" as="geometry" />
        </mxCell>
        <mxCell id="armBEsBEpPqoog4ruDf--112" value="&lt;font style=&quot;font-size: 8px;&quot;&gt;dpto(0,1)&lt;/font&gt;" style="text;html=1;align=center;verticalAlign=middle;resizable=0;points=[];autosize=1;strokeColor=none;fillColor=none;rotation=0;" parent="1" vertex="1">
          <mxGeometry x="3643.49" y="194.31999999999994" width="70" height="30" as="geometry" />
        </mxCell>
        <mxCell id="armBEsBEpPqoog4ruDf--113" value="" style="group" parent="1" vertex="1" connectable="0">
          <mxGeometry x="3531" y="191.51999999999998" width="8" height="28" as="geometry" />
        </mxCell>
        <mxCell id="armBEsBEpPqoog4ruDf--114" value="" style="ellipse;whiteSpace=wrap;html=1;aspect=fixed;" parent="armBEsBEpPqoog4ruDf--113" vertex="1">
          <mxGeometry width="8" height="8" as="geometry" />
        </mxCell>
        <mxCell id="armBEsBEpPqoog4ruDf--115" style="edgeStyle=orthogonalEdgeStyle;rounded=0;orthogonalLoop=1;jettySize=auto;html=1;endArrow=none;startFill=0;" parent="armBEsBEpPqoog4ruDf--113" edge="1">
          <mxGeometry relative="1" as="geometry">
            <mxPoint x="4" y="28" as="targetPoint" />
            <mxPoint x="4" y="8" as="sourcePoint" />
          </mxGeometry>
        </mxCell>
        <mxCell id="armBEsBEpPqoog4ruDf--116" value="" style="group" parent="1" vertex="1" connectable="0">
          <mxGeometry x="3551" y="191.51999999999998" width="8" height="28" as="geometry" />
        </mxCell>
        <mxCell id="armBEsBEpPqoog4ruDf--117" value="" style="ellipse;whiteSpace=wrap;html=1;aspect=fixed;" parent="armBEsBEpPqoog4ruDf--116" vertex="1">
          <mxGeometry width="8" height="8" as="geometry" />
        </mxCell>
        <mxCell id="armBEsBEpPqoog4ruDf--118" style="edgeStyle=orthogonalEdgeStyle;rounded=0;orthogonalLoop=1;jettySize=auto;html=1;endArrow=none;startFill=0;" parent="armBEsBEpPqoog4ruDf--116" edge="1">
          <mxGeometry relative="1" as="geometry">
            <mxPoint x="4" y="28" as="targetPoint" />
            <mxPoint x="4" y="8" as="sourcePoint" />
          </mxGeometry>
        </mxCell>
        <mxCell id="armBEsBEpPqoog4ruDf--119" value="&lt;font style=&quot;font-size: 8px;&quot;&gt;telefonos(1,n)&lt;/font&gt;" style="text;html=1;align=center;verticalAlign=middle;resizable=0;points=[];autosize=1;strokeColor=none;fillColor=none;rotation=-60;" parent="1" vertex="1">
          <mxGeometry x="3503.000381056767" y="141.52076211353312" width="90" height="30" as="geometry" />
        </mxCell>
        <mxCell id="armBEsBEpPqoog4ruDf--120" value="&lt;font style=&quot;font-size: 8px;&quot;&gt;email&lt;/font&gt;" style="text;html=1;align=center;verticalAlign=middle;resizable=0;points=[];autosize=1;strokeColor=none;fillColor=none;rotation=-60;" parent="1" vertex="1">
          <mxGeometry x="3533.000381056767" y="160.52114317029975" width="50" height="30" as="geometry" />
        </mxCell>
        <mxCell id="armBEsBEpPqoog4ruDf--121" value="" style="endArrow=classic;startArrow=classic;html=1;rounded=0;exitX=0.5;exitY=0;exitDx=0;exitDy=0;entryX=0.5;entryY=0;entryDx=0;entryDy=0;" parent="1" edge="1">
          <mxGeometry width="50" height="50" relative="1" as="geometry">
            <mxPoint x="3320" y="439.52" as="sourcePoint" />
            <mxPoint x="3720" y="439.52" as="targetPoint" />
            <Array as="points">
              <mxPoint x="3320" y="359.52" />
              <mxPoint x="3720" y="359.52" />
            </Array>
          </mxGeometry>
        </mxCell>
        <mxCell id="armBEsBEpPqoog4ruDf--123" value="(T,E)" style="text;html=1;align=center;verticalAlign=middle;resizable=0;points=[];autosize=1;strokeColor=none;fillColor=none;" parent="1" vertex="1">
          <mxGeometry x="3521" y="279.52" width="60" height="30" as="geometry" />
        </mxCell>
        <mxCell id="armBEsBEpPqoog4ruDf--124" value="Rol" style="rounded=0;whiteSpace=wrap;html=1;" parent="1" vertex="1">
          <mxGeometry x="4040" y="439.52" width="160" height="60" as="geometry" />
        </mxCell>
        <mxCell id="armBEsBEpPqoog4ruDf--126" style="edgeStyle=orthogonalEdgeStyle;rounded=0;orthogonalLoop=1;jettySize=auto;html=1;entryX=0;entryY=0.5;entryDx=0;entryDy=0;endArrow=none;startFill=0;" parent="1" source="armBEsBEpPqoog4ruDf--125" target="armBEsBEpPqoog4ruDf--124" edge="1">
          <mxGeometry relative="1" as="geometry" />
        </mxCell>
        <mxCell id="armBEsBEpPqoog4ruDf--127" style="edgeStyle=orthogonalEdgeStyle;rounded=0;orthogonalLoop=1;jettySize=auto;html=1;entryX=1;entryY=0.5;entryDx=0;entryDy=0;endArrow=none;startFill=0;" parent="1" source="armBEsBEpPqoog4ruDf--125" target="armBEsBEpPqoog4ruDf--5" edge="1">
          <mxGeometry relative="1" as="geometry" />
        </mxCell>
        <mxCell id="armBEsBEpPqoog4ruDf--125" value="emp_rol" style="rhombus;whiteSpace=wrap;html=1;" parent="1" vertex="1">
          <mxGeometry x="3880" y="429.52" width="80" height="80" as="geometry" />
        </mxCell>
        <mxCell id="armBEsBEpPqoog4ruDf--128" value="(1,n)" style="text;html=1;align=center;verticalAlign=middle;resizable=0;points=[];autosize=1;strokeColor=none;fillColor=none;" parent="1" vertex="1">
          <mxGeometry x="3800" y="440.52" width="60" height="30" as="geometry" />
        </mxCell>
        <mxCell id="armBEsBEpPqoog4ruDf--129" value="(0,n)" style="text;html=1;align=center;verticalAlign=middle;resizable=0;points=[];autosize=1;strokeColor=none;fillColor=none;" parent="1" vertex="1">
          <mxGeometry x="3980" y="439.52" width="60" height="30" as="geometry" />
        </mxCell>
        <mxCell id="armBEsBEpPqoog4ruDf--133" value="" style="group" parent="1" vertex="1" connectable="0">
          <mxGeometry x="3891" y="426.520762113533" width="8" height="28" as="geometry" />
        </mxCell>
        <mxCell id="armBEsBEpPqoog4ruDf--134" value="" style="ellipse;whiteSpace=wrap;html=1;aspect=fixed;" parent="armBEsBEpPqoog4ruDf--133" vertex="1">
          <mxGeometry width="8" height="8" as="geometry" />
        </mxCell>
        <mxCell id="armBEsBEpPqoog4ruDf--135" style="edgeStyle=orthogonalEdgeStyle;rounded=0;orthogonalLoop=1;jettySize=auto;html=1;endArrow=none;startFill=0;" parent="armBEsBEpPqoog4ruDf--133" edge="1">
          <mxGeometry relative="1" as="geometry">
            <mxPoint x="4" y="28" as="targetPoint" />
            <mxPoint x="4" y="8" as="sourcePoint" />
          </mxGeometry>
        </mxCell>
        <mxCell id="armBEsBEpPqoog4ruDf--136" value="&lt;font style=&quot;font-size: 8px;&quot;&gt;fecha_ini&lt;/font&gt;" style="text;html=1;align=center;verticalAlign=middle;resizable=0;points=[];autosize=1;strokeColor=none;fillColor=none;rotation=-60;" parent="1" vertex="1">
          <mxGeometry x="3867.9999999999995" y="387.5207621135331" width="70" height="30" as="geometry" />
        </mxCell>
        <mxCell id="armBEsBEpPqoog4ruDf--137" value="" style="group" parent="1" vertex="1" connectable="0">
          <mxGeometry x="3940.490381056767" y="426.5208891324553" width="8" height="28" as="geometry" />
        </mxCell>
        <mxCell id="armBEsBEpPqoog4ruDf--138" value="" style="ellipse;whiteSpace=wrap;html=1;aspect=fixed;" parent="armBEsBEpPqoog4ruDf--137" vertex="1">
          <mxGeometry width="8" height="8" as="geometry" />
        </mxCell>
        <mxCell id="armBEsBEpPqoog4ruDf--139" style="edgeStyle=orthogonalEdgeStyle;rounded=0;orthogonalLoop=1;jettySize=auto;html=1;endArrow=none;startFill=0;" parent="armBEsBEpPqoog4ruDf--137" edge="1">
          <mxGeometry relative="1" as="geometry">
            <mxPoint x="4" y="28" as="targetPoint" />
            <mxPoint x="4" y="8" as="sourcePoint" />
          </mxGeometry>
        </mxCell>
        <mxCell id="armBEsBEpPqoog4ruDf--140" value="&lt;font style=&quot;font-size: 8px;&quot;&gt;fecha_fin(0,1)&lt;/font&gt;" style="text;html=1;align=center;verticalAlign=middle;resizable=0;points=[];autosize=1;strokeColor=none;fillColor=none;rotation=-60;" parent="1" vertex="1">
          <mxGeometry x="3913.000381056767" y="375.71088913245535" width="90" height="30" as="geometry" />
        </mxCell>
        <mxCell id="armBEsBEpPqoog4ruDf--141" value="" style="group" parent="1" vertex="1" connectable="0">
          <mxGeometry x="4116" y="411.52" width="8" height="28" as="geometry" />
        </mxCell>
        <mxCell id="armBEsBEpPqoog4ruDf--142" value="" style="ellipse;whiteSpace=wrap;html=1;aspect=fixed;fillColor=light-dark(#FFFFFF,#FFFFFF);" parent="armBEsBEpPqoog4ruDf--141" vertex="1">
          <mxGeometry width="8" height="8" as="geometry" />
        </mxCell>
        <mxCell id="armBEsBEpPqoog4ruDf--143" style="edgeStyle=orthogonalEdgeStyle;rounded=0;orthogonalLoop=1;jettySize=auto;html=1;endArrow=none;startFill=0;" parent="armBEsBEpPqoog4ruDf--141" edge="1">
          <mxGeometry relative="1" as="geometry">
            <mxPoint x="4" y="28" as="targetPoint" />
            <mxPoint x="4" y="8" as="sourcePoint" />
          </mxGeometry>
        </mxCell>
        <mxCell id="armBEsBEpPqoog4ruDf--144" value="&lt;font style=&quot;font-size: 8px;&quot;&gt;nombre&lt;/font&gt;" style="text;html=1;align=center;verticalAlign=middle;resizable=0;points=[];autosize=1;strokeColor=none;fillColor=none;rotation=-60;" parent="1" vertex="1">
          <mxGeometry x="4099.000381056767" y="376.52114317029964" width="50" height="30" as="geometry" />
        </mxCell>
        <mxCell id="armBEsBEpPqoog4ruDf--147" value="" style="group" parent="1" vertex="1" connectable="0">
          <mxGeometry x="2366" y="891.0008891324553" width="8" height="28" as="geometry" />
        </mxCell>
        <mxCell id="armBEsBEpPqoog4ruDf--148" value="" style="ellipse;whiteSpace=wrap;html=1;aspect=fixed;" parent="armBEsBEpPqoog4ruDf--147" vertex="1">
          <mxGeometry width="8" height="8" as="geometry" />
        </mxCell>
        <mxCell id="armBEsBEpPqoog4ruDf--149" style="edgeStyle=orthogonalEdgeStyle;rounded=0;orthogonalLoop=1;jettySize=auto;html=1;endArrow=none;startFill=0;" parent="armBEsBEpPqoog4ruDf--147" edge="1">
          <mxGeometry relative="1" as="geometry">
            <mxPoint x="4" y="28" as="targetPoint" />
            <mxPoint x="4" y="8" as="sourcePoint" />
          </mxGeometry>
        </mxCell>
        <mxCell id="armBEsBEpPqoog4ruDf--150" value="" style="group" parent="1" vertex="1" connectable="0">
          <mxGeometry x="2386" y="891.0008891324553" width="8" height="28" as="geometry" />
        </mxCell>
        <mxCell id="armBEsBEpPqoog4ruDf--151" value="" style="ellipse;whiteSpace=wrap;html=1;aspect=fixed;" parent="armBEsBEpPqoog4ruDf--150" vertex="1">
          <mxGeometry width="8" height="8" as="geometry" />
        </mxCell>
        <mxCell id="armBEsBEpPqoog4ruDf--152" style="edgeStyle=orthogonalEdgeStyle;rounded=0;orthogonalLoop=1;jettySize=auto;html=1;endArrow=none;startFill=0;" parent="armBEsBEpPqoog4ruDf--150" edge="1">
          <mxGeometry relative="1" as="geometry">
            <mxPoint x="4" y="28" as="targetPoint" />
            <mxPoint x="4" y="8" as="sourcePoint" />
          </mxGeometry>
        </mxCell>
        <mxCell id="armBEsBEpPqoog4ruDf--153" value="&lt;font style=&quot;font-size: 8px;&quot;&gt;fecha_desde&lt;/font&gt;" style="text;html=1;align=center;verticalAlign=middle;resizable=0;points=[];autosize=1;strokeColor=none;fillColor=none;rotation=-60;" parent="1" vertex="1">
          <mxGeometry x="2359" y="848.0008891324554" width="80" height="30" as="geometry" />
        </mxCell>
        <mxCell id="armBEsBEpPqoog4ruDf--154" value="" style="group" parent="1" vertex="1" connectable="0">
          <mxGeometry x="2406" y="891.0008891324553" width="8" height="28" as="geometry" />
        </mxCell>
        <mxCell id="armBEsBEpPqoog4ruDf--155" value="" style="ellipse;whiteSpace=wrap;html=1;aspect=fixed;" parent="armBEsBEpPqoog4ruDf--154" vertex="1">
          <mxGeometry width="8" height="8" as="geometry" />
        </mxCell>
        <mxCell id="armBEsBEpPqoog4ruDf--156" style="edgeStyle=orthogonalEdgeStyle;rounded=0;orthogonalLoop=1;jettySize=auto;html=1;endArrow=none;startFill=0;" parent="armBEsBEpPqoog4ruDf--154" edge="1">
          <mxGeometry relative="1" as="geometry">
            <mxPoint x="4" y="28" as="targetPoint" />
            <mxPoint x="4" y="8" as="sourcePoint" />
          </mxGeometry>
        </mxCell>
        <mxCell id="armBEsBEpPqoog4ruDf--157" value="&lt;font style=&quot;font-size: 8px;&quot;&gt;fecha_hasta&lt;/font&gt;" style="text;html=1;align=center;verticalAlign=middle;resizable=0;points=[];autosize=1;strokeColor=none;fillColor=none;rotation=-60;" parent="1" vertex="1">
          <mxGeometry x="2380.000381056767" y="848.0010161513776" width="80" height="30" as="geometry" />
        </mxCell>
        <mxCell id="armBEsBEpPqoog4ruDf--158" value="&lt;font style=&quot;font-size: 8px;&quot;&gt;costo_total&lt;/font&gt;" style="text;html=1;align=center;verticalAlign=middle;resizable=0;points=[];autosize=1;strokeColor=none;fillColor=none;rotation=-60;" parent="1" vertex="1">
          <mxGeometry x="2340.000381056767" y="848.0010161513776" width="80" height="30" as="geometry" />
        </mxCell>
        <mxCell id="armBEsBEpPqoog4ruDf--163" value="Alquiler_Extension" style="rounded=0;whiteSpace=wrap;html=1;" parent="1" vertex="1">
          <mxGeometry x="2341" y="1260" width="160" height="60" as="geometry" />
        </mxCell>
        <mxCell id="armBEsBEpPqoog4ruDf--165" value="" style="group" parent="1" vertex="1" connectable="0">
          <mxGeometry x="2448" y="1232.0008891324553" width="8" height="28" as="geometry" />
        </mxCell>
        <mxCell id="armBEsBEpPqoog4ruDf--166" value="" style="ellipse;whiteSpace=wrap;html=1;aspect=fixed;" parent="armBEsBEpPqoog4ruDf--165" vertex="1">
          <mxGeometry width="8" height="8" as="geometry" />
        </mxCell>
        <mxCell id="armBEsBEpPqoog4ruDf--167" style="edgeStyle=orthogonalEdgeStyle;rounded=0;orthogonalLoop=1;jettySize=auto;html=1;endArrow=none;startFill=0;" parent="armBEsBEpPqoog4ruDf--165" edge="1">
          <mxGeometry relative="1" as="geometry">
            <mxPoint x="4" y="28" as="targetPoint" />
            <mxPoint x="4" y="8" as="sourcePoint" />
          </mxGeometry>
        </mxCell>
        <mxCell id="armBEsBEpPqoog4ruDf--168" value="" style="group" parent="1" vertex="1" connectable="0">
          <mxGeometry x="2468" y="1232.0008891324553" width="8" height="28" as="geometry" />
        </mxCell>
        <mxCell id="armBEsBEpPqoog4ruDf--169" value="" style="ellipse;whiteSpace=wrap;html=1;aspect=fixed;" parent="armBEsBEpPqoog4ruDf--168" vertex="1">
          <mxGeometry width="8" height="8" as="geometry" />
        </mxCell>
        <mxCell id="armBEsBEpPqoog4ruDf--170" style="edgeStyle=orthogonalEdgeStyle;rounded=0;orthogonalLoop=1;jettySize=auto;html=1;endArrow=none;startFill=0;" parent="armBEsBEpPqoog4ruDf--168" edge="1">
          <mxGeometry relative="1" as="geometry">
            <mxPoint x="4" y="28" as="targetPoint" />
            <mxPoint x="4" y="8" as="sourcePoint" />
          </mxGeometry>
        </mxCell>
        <mxCell id="armBEsBEpPqoog4ruDf--171" value="&lt;font style=&quot;font-size: 8px;&quot;&gt;costo_adicional&lt;/font&gt;" style="text;html=1;align=center;verticalAlign=middle;resizable=0;points=[];autosize=1;strokeColor=none;fillColor=none;rotation=-60;" parent="1" vertex="1">
          <mxGeometry x="2438.000381056767" y="1180.0010161513776" width="100" height="30" as="geometry" />
        </mxCell>
        <mxCell id="armBEsBEpPqoog4ruDf--172" value="&lt;font style=&quot;font-size: 8px;&quot;&gt;fecha_real&lt;/font&gt;" style="text;html=1;align=center;verticalAlign=middle;resizable=0;points=[];autosize=1;strokeColor=none;fillColor=none;rotation=-60;" parent="1" vertex="1">
          <mxGeometry x="2426.000381056767" y="1190.0008891324553" width="70" height="30" as="geometry" />
        </mxCell>
        <mxCell id="armBEsBEpPqoog4ruDf--210" value="" style="group" parent="1" vertex="1" connectable="0">
          <mxGeometry x="3216" y="891.0010161513774" width="8" height="28" as="geometry" />
        </mxCell>
        <mxCell id="armBEsBEpPqoog4ruDf--211" value="" style="ellipse;whiteSpace=wrap;html=1;aspect=fixed;" parent="armBEsBEpPqoog4ruDf--210" vertex="1">
          <mxGeometry width="8" height="8" as="geometry" />
        </mxCell>
        <mxCell id="armBEsBEpPqoog4ruDf--212" style="edgeStyle=orthogonalEdgeStyle;rounded=0;orthogonalLoop=1;jettySize=auto;html=1;endArrow=none;startFill=0;" parent="armBEsBEpPqoog4ruDf--210" edge="1">
          <mxGeometry relative="1" as="geometry">
            <mxPoint x="4" y="28" as="targetPoint" />
            <mxPoint x="4" y="8" as="sourcePoint" />
          </mxGeometry>
        </mxCell>
        <mxCell id="armBEsBEpPqoog4ruDf--221" value="&lt;font style=&quot;font-size: 8px;&quot;&gt;desc_tramites&lt;/font&gt;" style="text;html=1;align=center;verticalAlign=middle;resizable=0;points=[];autosize=1;strokeColor=none;fillColor=none;rotation=-60;" parent="1" vertex="1">
          <mxGeometry x="3165.000381056767" y="843.0011431702998" width="90" height="30" as="geometry" />
        </mxCell>
        <mxCell id="armBEsBEpPqoog4ruDf--222" value="" style="group" parent="1" vertex="1" connectable="0">
          <mxGeometry x="3196" y="891.0001270189223" width="8" height="28" as="geometry" />
        </mxCell>
        <mxCell id="armBEsBEpPqoog4ruDf--223" value="" style="ellipse;whiteSpace=wrap;html=1;aspect=fixed;" parent="armBEsBEpPqoog4ruDf--222" vertex="1">
          <mxGeometry width="8" height="8" as="geometry" />
        </mxCell>
        <mxCell id="armBEsBEpPqoog4ruDf--224" style="edgeStyle=orthogonalEdgeStyle;rounded=0;orthogonalLoop=1;jettySize=auto;html=1;endArrow=none;startFill=0;" parent="armBEsBEpPqoog4ruDf--222" edge="1">
          <mxGeometry relative="1" as="geometry">
            <mxPoint x="4" y="28" as="targetPoint" />
            <mxPoint x="4" y="8" as="sourcePoint" />
          </mxGeometry>
        </mxCell>
        <mxCell id="armBEsBEpPqoog4ruDf--225" value="&lt;font style=&quot;font-size: 8px;&quot;&gt;fecha&lt;/font&gt;" style="text;html=1;align=center;verticalAlign=middle;resizable=0;points=[];autosize=1;strokeColor=none;fillColor=none;rotation=-60;" parent="1" vertex="1">
          <mxGeometry x="3155.000381056767" y="860.0011431702997" width="50" height="30" as="geometry" />
        </mxCell>
        <mxCell id="armBEsBEpPqoog4ruDf--234" value="" style="group" parent="1" vertex="1" connectable="0">
          <mxGeometry x="3174" y="891.0008891324553" width="8" height="28" as="geometry" />
        </mxCell>
        <mxCell id="armBEsBEpPqoog4ruDf--235" value="" style="ellipse;whiteSpace=wrap;html=1;aspect=fixed;" parent="armBEsBEpPqoog4ruDf--234" vertex="1">
          <mxGeometry width="8" height="8" as="geometry" />
        </mxCell>
        <mxCell id="armBEsBEpPqoog4ruDf--236" style="edgeStyle=orthogonalEdgeStyle;rounded=0;orthogonalLoop=1;jettySize=auto;html=1;endArrow=none;startFill=0;" parent="armBEsBEpPqoog4ruDf--234" edge="1">
          <mxGeometry relative="1" as="geometry">
            <mxPoint x="4" y="28" as="targetPoint" />
            <mxPoint x="4" y="8" as="sourcePoint" />
          </mxGeometry>
        </mxCell>
        <mxCell id="armBEsBEpPqoog4ruDf--237" value="&lt;font style=&quot;font-size: 8px;&quot;&gt;costo_total&lt;/font&gt;" style="text;html=1;align=center;verticalAlign=middle;resizable=0;points=[];autosize=1;strokeColor=none;fillColor=none;rotation=-60;" parent="1" vertex="1">
          <mxGeometry x="3188.000381056767" y="848.0010161513776" width="80" height="30" as="geometry" />
        </mxCell>
        <mxCell id="armBEsBEpPqoog4ruDf--239" style="edgeStyle=orthogonalEdgeStyle;rounded=0;orthogonalLoop=1;jettySize=auto;html=1;entryX=0.5;entryY=1;entryDx=0;entryDy=0;endArrow=none;startFill=0;" parent="1" source="armBEsBEpPqoog4ruDf--238" target="armBEsBEpPqoog4ruDf--7" edge="1">
          <mxGeometry relative="1" as="geometry" />
        </mxCell>
        <mxCell id="armBEsBEpPqoog4ruDf--240" style="edgeStyle=orthogonalEdgeStyle;rounded=0;orthogonalLoop=1;jettySize=auto;html=1;endArrow=none;startFill=0;" parent="1" target="armBEsBEpPqoog4ruDf--163" edge="1">
          <mxGeometry relative="1" as="geometry">
            <mxPoint x="2421" y="1119" as="sourcePoint" />
          </mxGeometry>
        </mxCell>
        <mxCell id="armBEsBEpPqoog4ruDf--238" value="extension" style="rhombus;whiteSpace=wrap;html=1;" parent="1" vertex="1">
          <mxGeometry x="2381" y="1079" width="80" height="80" as="geometry" />
        </mxCell>
        <mxCell id="armBEsBEpPqoog4ruDf--241" value="(0,n)" style="text;html=1;align=center;verticalAlign=middle;resizable=0;points=[];autosize=1;strokeColor=none;fillColor=none;" parent="1" vertex="1">
          <mxGeometry x="2361" y="979" width="60" height="30" as="geometry" />
        </mxCell>
        <mxCell id="armBEsBEpPqoog4ruDf--242" value="(1,1)" style="text;html=1;align=center;verticalAlign=middle;resizable=0;points=[];autosize=1;strokeColor=none;fillColor=none;" parent="1" vertex="1">
          <mxGeometry x="2361" y="1230" width="60" height="30" as="geometry" />
        </mxCell>
        <mxCell id="armBEsBEpPqoog4ruDf--249" value="(0,n)" style="text;html=1;align=center;verticalAlign=middle;resizable=0;points=[];autosize=1;strokeColor=none;fillColor=none;" parent="1" vertex="1">
          <mxGeometry x="2660" y="218.57999999999998" width="60" height="30" as="geometry" />
        </mxCell>
        <mxCell id="armBEsBEpPqoog4ruDf--319" style="edgeStyle=orthogonalEdgeStyle;rounded=0;orthogonalLoop=1;jettySize=auto;html=1;entryX=0.78;entryY=-0.002;entryDx=0;entryDy=0;entryPerimeter=0;endArrow=none;startFill=0;" parent="1" source="armBEsBEpPqoog4ruDf--251" target="armBEsBEpPqoog4ruDf--9" edge="1">
          <mxGeometry relative="1" as="geometry" />
        </mxCell>
        <mxCell id="armBEsBEpPqoog4ruDf--251" value="vent_tarj" style="rhombus;whiteSpace=wrap;html=1;" parent="1" vertex="1">
          <mxGeometry x="2799.9999999999995" y="1100" width="80" height="80" as="geometry" />
        </mxCell>
        <mxCell id="armBEsBEpPqoog4ruDf--256" value="" style="group" parent="1" vertex="1" connectable="0">
          <mxGeometry x="2859.5099999999998" y="1096.0008891324553" width="8" height="28" as="geometry" />
        </mxCell>
        <mxCell id="armBEsBEpPqoog4ruDf--257" value="" style="ellipse;whiteSpace=wrap;html=1;aspect=fixed;" parent="armBEsBEpPqoog4ruDf--256" vertex="1">
          <mxGeometry width="8" height="8" as="geometry" />
        </mxCell>
        <mxCell id="armBEsBEpPqoog4ruDf--258" style="edgeStyle=orthogonalEdgeStyle;rounded=0;orthogonalLoop=1;jettySize=auto;html=1;endArrow=none;startFill=0;" parent="armBEsBEpPqoog4ruDf--256" edge="1">
          <mxGeometry relative="1" as="geometry">
            <mxPoint x="4" y="28" as="targetPoint" />
            <mxPoint x="4" y="8" as="sourcePoint" />
          </mxGeometry>
        </mxCell>
        <mxCell id="armBEsBEpPqoog4ruDf--259" value="&lt;font style=&quot;font-size: 8px;&quot;&gt;cuotas(0,1)&lt;/font&gt;" style="text;html=1;align=center;verticalAlign=middle;resizable=0;points=[];autosize=1;strokeColor=none;fillColor=none;rotation=-60;" parent="1" vertex="1">
          <mxGeometry x="2833.5103810567666" y="1052.0008891324553" width="80" height="30" as="geometry" />
        </mxCell>
        <mxCell id="armBEsBEpPqoog4ruDf--261" value="(0,n)" style="text;html=1;align=center;verticalAlign=middle;resizable=0;points=[];autosize=1;strokeColor=none;fillColor=none;" parent="1" vertex="1">
          <mxGeometry x="2897.9799999999996" y="1195.5" width="60" height="30" as="geometry" />
        </mxCell>
        <mxCell id="armBEsBEpPqoog4ruDf--265" value="" style="group" parent="1" vertex="1" connectable="0">
          <mxGeometry x="2781.49" y="1230.5" width="8" height="28" as="geometry" />
        </mxCell>
        <mxCell id="armBEsBEpPqoog4ruDf--266" value="" style="ellipse;whiteSpace=wrap;html=1;aspect=fixed;fillColor=light-dark(#FFFFFF,#FFFFFF);" parent="armBEsBEpPqoog4ruDf--265" vertex="1">
          <mxGeometry width="8" height="8" as="geometry" />
        </mxCell>
        <mxCell id="armBEsBEpPqoog4ruDf--267" style="edgeStyle=orthogonalEdgeStyle;rounded=0;orthogonalLoop=1;jettySize=auto;html=1;endArrow=none;startFill=0;" parent="armBEsBEpPqoog4ruDf--265" edge="1">
          <mxGeometry relative="1" as="geometry">
            <mxPoint x="4" y="28" as="targetPoint" />
            <mxPoint x="4" y="8" as="sourcePoint" />
          </mxGeometry>
        </mxCell>
        <mxCell id="armBEsBEpPqoog4ruDf--268" value="" style="group" parent="1" vertex="1" connectable="0">
          <mxGeometry x="2801.49" y="1230.5" width="8" height="28" as="geometry" />
        </mxCell>
        <mxCell id="armBEsBEpPqoog4ruDf--269" value="" style="ellipse;whiteSpace=wrap;html=1;aspect=fixed;" parent="armBEsBEpPqoog4ruDf--268" vertex="1">
          <mxGeometry width="8" height="8" as="geometry" />
        </mxCell>
        <mxCell id="armBEsBEpPqoog4ruDf--270" style="edgeStyle=orthogonalEdgeStyle;rounded=0;orthogonalLoop=1;jettySize=auto;html=1;endArrow=none;startFill=0;" parent="armBEsBEpPqoog4ruDf--268" edge="1">
          <mxGeometry relative="1" as="geometry">
            <mxPoint x="4" y="28" as="targetPoint" />
            <mxPoint x="4" y="8" as="sourcePoint" />
          </mxGeometry>
        </mxCell>
        <mxCell id="armBEsBEpPqoog4ruDf--271" value="&lt;font style=&quot;font-size: 8px;&quot;&gt;numero&lt;/font&gt;" style="text;html=1;align=center;verticalAlign=middle;resizable=0;points=[];autosize=1;strokeColor=none;fillColor=none;rotation=-60;" parent="1" vertex="1">
          <mxGeometry x="2763.4903810567666" y="1195.5010161513776" width="50" height="30" as="geometry" />
        </mxCell>
        <mxCell id="armBEsBEpPqoog4ruDf--272" value="&lt;font style=&quot;font-size: 8px;&quot;&gt;fecha_venc&lt;/font&gt;" style="text;html=1;align=center;verticalAlign=middle;resizable=0;points=[];autosize=1;strokeColor=none;fillColor=none;rotation=-60;" parent="1" vertex="1">
          <mxGeometry x="2779.4903810567666" y="1189.500635094611" width="70" height="30" as="geometry" />
        </mxCell>
        <mxCell id="armBEsBEpPqoog4ruDf--275" value="op_tarj" style="rhombus;whiteSpace=wrap;html=1;" parent="1" vertex="1">
          <mxGeometry x="2578" y="1248.5" width="80" height="80" as="geometry" />
        </mxCell>
        <mxCell id="armBEsBEpPqoog4ruDf--276" value="tarj_banco" style="rhombus;whiteSpace=wrap;html=1;" parent="1" vertex="1">
          <mxGeometry x="2938" y="1248.5" width="80" height="80" as="geometry" />
        </mxCell>
        <mxCell id="armBEsBEpPqoog4ruDf--289" value="" style="group" parent="1" vertex="1" connectable="0">
          <mxGeometry x="3106" y="1231.5008891324553" width="8" height="28" as="geometry" />
        </mxCell>
        <mxCell id="armBEsBEpPqoog4ruDf--290" value="" style="ellipse;whiteSpace=wrap;html=1;aspect=fixed;fillColor=light-dark(#FFFFFF,#FFFFFF);" parent="armBEsBEpPqoog4ruDf--289" vertex="1">
          <mxGeometry width="8" height="8" as="geometry" />
        </mxCell>
        <mxCell id="armBEsBEpPqoog4ruDf--291" style="edgeStyle=orthogonalEdgeStyle;rounded=0;orthogonalLoop=1;jettySize=auto;html=1;endArrow=none;startFill=0;" parent="armBEsBEpPqoog4ruDf--289" edge="1">
          <mxGeometry relative="1" as="geometry">
            <mxPoint x="4" y="28" as="targetPoint" />
            <mxPoint x="4" y="8" as="sourcePoint" />
          </mxGeometry>
        </mxCell>
        <mxCell id="armBEsBEpPqoog4ruDf--292" value="" style="group" parent="1" vertex="1" connectable="0">
          <mxGeometry x="3215" y="1232.0008891324553" width="8" height="28" as="geometry" />
        </mxCell>
        <mxCell id="armBEsBEpPqoog4ruDf--293" value="" style="ellipse;whiteSpace=wrap;html=1;aspect=fixed;" parent="armBEsBEpPqoog4ruDf--292" vertex="1">
          <mxGeometry width="8" height="8" as="geometry" />
        </mxCell>
        <mxCell id="armBEsBEpPqoog4ruDf--294" style="edgeStyle=orthogonalEdgeStyle;rounded=0;orthogonalLoop=1;jettySize=auto;html=1;endArrow=none;startFill=0;" parent="armBEsBEpPqoog4ruDf--292" edge="1">
          <mxGeometry relative="1" as="geometry">
            <mxPoint x="4" y="28" as="targetPoint" />
            <mxPoint x="4" y="8" as="sourcePoint" />
          </mxGeometry>
        </mxCell>
        <mxCell id="armBEsBEpPqoog4ruDf--295" value="&lt;font style=&quot;font-size: 8px;&quot;&gt;num_cuota&lt;/font&gt;" style="text;html=1;align=center;verticalAlign=middle;resizable=0;points=[];autosize=1;strokeColor=none;fillColor=none;rotation=-60;" parent="1" vertex="1">
          <mxGeometry x="3082.000381056767" y="1192.0008891324553" width="70" height="30" as="geometry" />
        </mxCell>
        <mxCell id="armBEsBEpPqoog4ruDf--296" style="edgeStyle=orthogonalEdgeStyle;rounded=0;orthogonalLoop=1;jettySize=auto;html=1;entryX=0.5;entryY=1;entryDx=0;entryDy=0;endArrow=none;startFill=0;" parent="1" source="armBEsBEpPqoog4ruDf--298" edge="1">
          <mxGeometry relative="1" as="geometry">
            <mxPoint x="3180.5" y="978.5" as="targetPoint" />
          </mxGeometry>
        </mxCell>
        <mxCell id="armBEsBEpPqoog4ruDf--297" style="edgeStyle=orthogonalEdgeStyle;rounded=0;orthogonalLoop=1;jettySize=auto;html=1;endArrow=none;startFill=0;" parent="1" edge="1">
          <mxGeometry relative="1" as="geometry">
            <mxPoint x="3180.5" y="1118.5" as="sourcePoint" />
            <mxPoint x="3180.5" y="1259.5" as="targetPoint" />
          </mxGeometry>
        </mxCell>
        <mxCell id="armBEsBEpPqoog4ruDf--298" value="cuota_fin" style="rhombus;whiteSpace=wrap;html=1;" parent="1" vertex="1">
          <mxGeometry x="3140.5" y="1078.5" width="80" height="80" as="geometry" />
        </mxCell>
        <mxCell id="armBEsBEpPqoog4ruDf--299" value="(0,n)" style="text;html=1;align=center;verticalAlign=middle;resizable=0;points=[];autosize=1;strokeColor=none;fillColor=none;" parent="1" vertex="1">
          <mxGeometry x="3120.5" y="978.5" width="60" height="30" as="geometry" />
        </mxCell>
        <mxCell id="armBEsBEpPqoog4ruDf--300" value="(1,1)" style="text;html=1;align=center;verticalAlign=middle;resizable=0;points=[];autosize=1;strokeColor=none;fillColor=none;" parent="1" vertex="1">
          <mxGeometry x="3120.5" y="1229.5" width="60" height="30" as="geometry" />
        </mxCell>
        <mxCell id="armBEsBEpPqoog4ruDf--302" value="(0,n)" style="text;html=1;align=center;verticalAlign=middle;resizable=0;points=[];autosize=1;strokeColor=none;fillColor=none;" parent="1" vertex="1">
          <mxGeometry x="2555" y="1428.5" width="60" height="30" as="geometry" />
        </mxCell>
        <mxCell id="armBEsBEpPqoog4ruDf--303" value="(0,n)" style="text;html=1;align=center;verticalAlign=middle;resizable=0;points=[];autosize=1;strokeColor=none;fillColor=none;" parent="1" vertex="1">
          <mxGeometry x="2923.49" y="1428.5" width="60" height="30" as="geometry" />
        </mxCell>
        <mxCell id="armBEsBEpPqoog4ruDf--304" value="(1,1)" style="text;html=1;align=center;verticalAlign=middle;resizable=0;points=[];autosize=1;strokeColor=none;fillColor=none;" parent="1" vertex="1">
          <mxGeometry x="2655" y="1260.5" width="60" height="30" as="geometry" />
        </mxCell>
        <mxCell id="armBEsBEpPqoog4ruDf--305" value="(1,1)" style="text;html=1;align=center;verticalAlign=middle;resizable=0;points=[];autosize=1;strokeColor=none;fillColor=none;" parent="1" vertex="1">
          <mxGeometry x="2875" y="1259.5" width="60" height="30" as="geometry" />
        </mxCell>
        <mxCell id="armBEsBEpPqoog4ruDf--306" value="" style="group" parent="1" vertex="1" connectable="0">
          <mxGeometry x="2651" y="1429.4996189432334" width="8" height="28" as="geometry" />
        </mxCell>
        <mxCell id="armBEsBEpPqoog4ruDf--307" value="" style="ellipse;whiteSpace=wrap;html=1;aspect=fixed;fillColor=light-dark(#FFFFFF,#FFFFFF);" parent="armBEsBEpPqoog4ruDf--306" vertex="1">
          <mxGeometry width="8" height="8" as="geometry" />
        </mxCell>
        <mxCell id="armBEsBEpPqoog4ruDf--308" style="edgeStyle=orthogonalEdgeStyle;rounded=0;orthogonalLoop=1;jettySize=auto;html=1;endArrow=none;startFill=0;" parent="armBEsBEpPqoog4ruDf--306" edge="1">
          <mxGeometry relative="1" as="geometry">
            <mxPoint x="4" y="28" as="targetPoint" />
            <mxPoint x="4" y="8" as="sourcePoint" />
          </mxGeometry>
        </mxCell>
        <mxCell id="armBEsBEpPqoog4ruDf--309" value="&lt;font style=&quot;font-size: 8px;&quot;&gt;nombre&lt;/font&gt;" style="text;html=1;align=center;verticalAlign=middle;resizable=0;points=[];autosize=1;strokeColor=none;fillColor=none;rotation=-60;" parent="1" vertex="1">
          <mxGeometry x="2633.000381056767" y="1394.500635094611" width="50" height="30" as="geometry" />
        </mxCell>
        <mxCell id="armBEsBEpPqoog4ruDf--310" value="" style="group" parent="1" vertex="1" connectable="0">
          <mxGeometry x="3017.49" y="1430.4996189432334" width="8" height="28" as="geometry" />
        </mxCell>
        <mxCell id="armBEsBEpPqoog4ruDf--311" value="" style="ellipse;whiteSpace=wrap;html=1;aspect=fixed;fillColor=light-dark(#FFFFFF,#FFFFFF);" parent="armBEsBEpPqoog4ruDf--310" vertex="1">
          <mxGeometry width="8" height="8" as="geometry" />
        </mxCell>
        <mxCell id="armBEsBEpPqoog4ruDf--312" style="edgeStyle=orthogonalEdgeStyle;rounded=0;orthogonalLoop=1;jettySize=auto;html=1;endArrow=none;startFill=0;" parent="armBEsBEpPqoog4ruDf--310" edge="1">
          <mxGeometry relative="1" as="geometry">
            <mxPoint x="4" y="28" as="targetPoint" />
            <mxPoint x="4" y="8" as="sourcePoint" />
          </mxGeometry>
        </mxCell>
        <mxCell id="armBEsBEpPqoog4ruDf--313" value="&lt;font style=&quot;font-size: 8px;&quot;&gt;nombre&lt;/font&gt;" style="text;html=1;align=center;verticalAlign=middle;resizable=0;points=[];autosize=1;strokeColor=none;fillColor=none;rotation=-60;" parent="1" vertex="1">
          <mxGeometry x="2999.4903810567666" y="1395.500635094611" width="50" height="30" as="geometry" />
        </mxCell>
        <mxCell id="armBEsBEpPqoog4ruDf--318" style="edgeStyle=orthogonalEdgeStyle;rounded=0;orthogonalLoop=1;jettySize=auto;html=1;exitX=0;exitY=0.5;exitDx=0;exitDy=0;entryX=0.5;entryY=0;entryDx=0;entryDy=0;endArrow=none;startFill=0;" parent="1" source="armBEsBEpPqoog4ruDf--8" target="armBEsBEpPqoog4ruDf--251" edge="1">
          <mxGeometry relative="1" as="geometry" />
        </mxCell>
        <mxCell id="armBEsBEpPqoog4ruDf--325" style="edgeStyle=orthogonalEdgeStyle;rounded=0;orthogonalLoop=1;jettySize=auto;html=1;entryX=0.162;entryY=-0.015;entryDx=0;entryDy=0;entryPerimeter=0;endArrow=none;startFill=0;" parent="1" target="armBEsBEpPqoog4ruDf--9" edge="1">
          <mxGeometry relative="1" as="geometry">
            <mxPoint x="2739.9425287356325" y="1178.9975882349715" as="sourcePoint" />
            <mxPoint x="2739.7699999999995" y="1399.3200000000002" as="targetPoint" />
          </mxGeometry>
        </mxCell>
        <mxCell id="armBEsBEpPqoog4ruDf--326" style="edgeStyle=orthogonalEdgeStyle;rounded=0;orthogonalLoop=1;jettySize=auto;html=1;entryX=1;entryY=0.5;entryDx=0;entryDy=0;exitX=0.5;exitY=0;exitDx=0;exitDy=0;endArrow=none;startFill=0;" parent="1" source="armBEsBEpPqoog4ruDf--320" target="armBEsBEpPqoog4ruDf--7" edge="1">
          <mxGeometry relative="1" as="geometry" />
        </mxCell>
        <mxCell id="armBEsBEpPqoog4ruDf--320" value="vent_tarj" style="rhombus;whiteSpace=wrap;html=1;" parent="1" vertex="1">
          <mxGeometry x="2698" y="1100" width="83.88" height="80" as="geometry" />
        </mxCell>
        <mxCell id="armBEsBEpPqoog4ruDf--321" value="" style="group" parent="1" vertex="1" connectable="0">
          <mxGeometry x="2761.39" y="1096.0010161513774" width="8" height="28" as="geometry" />
        </mxCell>
        <mxCell id="armBEsBEpPqoog4ruDf--322" value="" style="ellipse;whiteSpace=wrap;html=1;aspect=fixed;" parent="armBEsBEpPqoog4ruDf--321" vertex="1">
          <mxGeometry width="8" height="8" as="geometry" />
        </mxCell>
        <mxCell id="armBEsBEpPqoog4ruDf--323" style="edgeStyle=orthogonalEdgeStyle;rounded=0;orthogonalLoop=1;jettySize=auto;html=1;endArrow=none;startFill=0;" parent="armBEsBEpPqoog4ruDf--321" edge="1">
          <mxGeometry relative="1" as="geometry">
            <mxPoint x="4" y="28" as="targetPoint" />
            <mxPoint x="4" y="8" as="sourcePoint" />
          </mxGeometry>
        </mxCell>
        <mxCell id="armBEsBEpPqoog4ruDf--324" value="&lt;font style=&quot;font-size: 8px;&quot;&gt;cuotas(0,1)&lt;/font&gt;" style="text;html=1;align=center;verticalAlign=middle;resizable=0;points=[];autosize=1;strokeColor=none;fillColor=none;rotation=-60;" parent="1" vertex="1">
          <mxGeometry x="2735.3903810567667" y="1052.0010161513774" width="80" height="30" as="geometry" />
        </mxCell>
        <mxCell id="armBEsBEpPqoog4ruDf--340" value="" style="group" parent="1" vertex="1" connectable="0">
          <mxGeometry x="3235.5" y="891.0007621135331" width="8" height="28" as="geometry" />
        </mxCell>
        <mxCell id="armBEsBEpPqoog4ruDf--341" value="" style="ellipse;whiteSpace=wrap;html=1;aspect=fixed;" parent="armBEsBEpPqoog4ruDf--340" vertex="1">
          <mxGeometry width="8" height="8" as="geometry" />
        </mxCell>
        <mxCell id="armBEsBEpPqoog4ruDf--342" style="edgeStyle=orthogonalEdgeStyle;rounded=0;orthogonalLoop=1;jettySize=auto;html=1;endArrow=none;startFill=0;" parent="armBEsBEpPqoog4ruDf--340" edge="1">
          <mxGeometry relative="1" as="geometry">
            <mxPoint x="4" y="28" as="targetPoint" />
            <mxPoint x="4" y="8" as="sourcePoint" />
          </mxGeometry>
        </mxCell>
        <mxCell id="armBEsBEpPqoog4ruDf--343" value="&lt;font style=&quot;font-size: 8px;&quot;&gt;forma_pago&lt;/font&gt;" style="text;html=1;align=center;verticalAlign=middle;resizable=0;points=[];autosize=1;strokeColor=none;fillColor=none;rotation=-60;" parent="1" vertex="1">
          <mxGeometry x="3214.000381056767" y="849.0008891324554" width="70" height="30" as="geometry" />
        </mxCell>
        <mxCell id="armBEsBEpPqoog4ruDf--348" value="" style="group" parent="1" vertex="1" connectable="0">
          <mxGeometry x="2346" y="891.000762113533" width="8" height="28" as="geometry" />
        </mxCell>
        <mxCell id="armBEsBEpPqoog4ruDf--349" value="" style="ellipse;whiteSpace=wrap;html=1;aspect=fixed;" parent="armBEsBEpPqoog4ruDf--348" vertex="1">
          <mxGeometry width="8" height="8" as="geometry" />
        </mxCell>
        <mxCell id="armBEsBEpPqoog4ruDf--350" style="edgeStyle=orthogonalEdgeStyle;rounded=0;orthogonalLoop=1;jettySize=auto;html=1;endArrow=none;startFill=0;" parent="armBEsBEpPqoog4ruDf--348" edge="1">
          <mxGeometry relative="1" as="geometry">
            <mxPoint x="4" y="28" as="targetPoint" />
            <mxPoint x="4" y="8" as="sourcePoint" />
          </mxGeometry>
        </mxCell>
        <mxCell id="armBEsBEpPqoog4ruDf--351" value="&lt;font style=&quot;font-size: 8px;&quot;&gt;forma_pago&lt;/font&gt;" style="text;html=1;align=center;verticalAlign=middle;resizable=0;points=[];autosize=1;strokeColor=none;fillColor=none;rotation=-60;" parent="1" vertex="1">
          <mxGeometry x="2325.000381056767" y="850.0008891324553" width="70" height="30" as="geometry" />
        </mxCell>
        <mxCell id="armBEsBEpPqoog4ruDf--352" value="(0,1)" style="text;html=1;align=center;verticalAlign=middle;resizable=0;points=[];autosize=1;strokeColor=none;fillColor=none;" parent="1" vertex="1">
          <mxGeometry x="3038" y="919" width="60" height="30" as="geometry" />
        </mxCell>
        <mxCell id="armBEsBEpPqoog4ruDf--353" value="(0,1)" style="text;html=1;align=center;verticalAlign=middle;resizable=0;points=[];autosize=1;strokeColor=none;fillColor=none;" parent="1" vertex="1">
          <mxGeometry x="2506" y="919" width="60" height="30" as="geometry" />
        </mxCell>
        <mxCell id="armBEsBEpPqoog4ruDf--356" value="vehic_vent" style="rhombus;whiteSpace=wrap;html=1;" parent="1" vertex="1">
          <mxGeometry x="2960" y="575.0002540378443" width="80" height="80" as="geometry" />
        </mxCell>
        <mxCell id="armBEsBEpPqoog4ruDf--357" value="" style="group" parent="1" vertex="1" connectable="0">
          <mxGeometry x="3020" y="571.0008891324553" width="8" height="28" as="geometry" />
        </mxCell>
        <mxCell id="armBEsBEpPqoog4ruDf--358" value="" style="ellipse;whiteSpace=wrap;html=1;aspect=fixed;" parent="armBEsBEpPqoog4ruDf--357" vertex="1">
          <mxGeometry width="8" height="8" as="geometry" />
        </mxCell>
        <mxCell id="armBEsBEpPqoog4ruDf--359" style="edgeStyle=orthogonalEdgeStyle;rounded=0;orthogonalLoop=1;jettySize=auto;html=1;endArrow=none;startFill=0;" parent="armBEsBEpPqoog4ruDf--357" edge="1">
          <mxGeometry relative="1" as="geometry">
            <mxPoint x="4" y="28" as="targetPoint" />
            <mxPoint x="4" y="8" as="sourcePoint" />
          </mxGeometry>
        </mxCell>
        <mxCell id="armBEsBEpPqoog4ruDf--360" value="&lt;font style=&quot;font-size: 8px;&quot;&gt;fecha_alq&lt;/font&gt;" style="text;html=1;align=center;verticalAlign=middle;resizable=0;points=[];autosize=1;strokeColor=none;fillColor=none;rotation=-60;" parent="1" vertex="1">
          <mxGeometry x="2997.000381056767" y="531.0008891324553" width="70" height="30" as="geometry" />
        </mxCell>
        <mxCell id="armBEsBEpPqoog4ruDf--361" value="" style="group" parent="1" vertex="1" connectable="0">
          <mxGeometry x="2973" y="570.0008891324553" width="8" height="28" as="geometry" />
        </mxCell>
        <mxCell id="armBEsBEpPqoog4ruDf--362" value="" style="ellipse;whiteSpace=wrap;html=1;aspect=fixed;" parent="armBEsBEpPqoog4ruDf--361" vertex="1">
          <mxGeometry width="8" height="8" as="geometry" />
        </mxCell>
        <mxCell id="armBEsBEpPqoog4ruDf--363" style="edgeStyle=orthogonalEdgeStyle;rounded=0;orthogonalLoop=1;jettySize=auto;html=1;endArrow=none;startFill=0;" parent="armBEsBEpPqoog4ruDf--361" edge="1">
          <mxGeometry relative="1" as="geometry">
            <mxPoint x="4" y="28" as="targetPoint" />
            <mxPoint x="4" y="8" as="sourcePoint" />
          </mxGeometry>
        </mxCell>
        <mxCell id="armBEsBEpPqoog4ruDf--364" value="&lt;font style=&quot;font-size: 8px;&quot;&gt;precio&lt;/font&gt;" style="text;html=1;align=center;verticalAlign=middle;resizable=0;points=[];autosize=1;strokeColor=none;fillColor=none;rotation=-60;" parent="1" vertex="1">
          <mxGeometry x="2955.000381056767" y="537.0008891324553" width="50" height="30" as="geometry" />
        </mxCell>
        <mxCell id="armBEsBEpPqoog4ruDf--365" value="vehic_alq" style="rhombus;whiteSpace=wrap;html=1;" parent="1" vertex="1">
          <mxGeometry x="2560" y="575.0002540378443" width="80" height="80" as="geometry" />
        </mxCell>
        <mxCell id="armBEsBEpPqoog4ruDf--366" value="" style="group" parent="1" vertex="1" connectable="0">
          <mxGeometry x="2620" y="571.0008891324553" width="8" height="28" as="geometry" />
        </mxCell>
        <mxCell id="armBEsBEpPqoog4ruDf--367" value="" style="ellipse;whiteSpace=wrap;html=1;aspect=fixed;" parent="armBEsBEpPqoog4ruDf--366" vertex="1">
          <mxGeometry width="8" height="8" as="geometry" />
        </mxCell>
        <mxCell id="armBEsBEpPqoog4ruDf--368" style="edgeStyle=orthogonalEdgeStyle;rounded=0;orthogonalLoop=1;jettySize=auto;html=1;endArrow=none;startFill=0;" parent="armBEsBEpPqoog4ruDf--366" edge="1">
          <mxGeometry relative="1" as="geometry">
            <mxPoint x="4" y="28" as="targetPoint" />
            <mxPoint x="4" y="8" as="sourcePoint" />
          </mxGeometry>
        </mxCell>
        <mxCell id="armBEsBEpPqoog4ruDf--369" value="&lt;font style=&quot;font-size: 8px;&quot;&gt;fecha_alq&lt;/font&gt;" style="text;html=1;align=center;verticalAlign=middle;resizable=0;points=[];autosize=1;strokeColor=none;fillColor=none;rotation=-60;" parent="1" vertex="1">
          <mxGeometry x="2597.000381056767" y="531.0008891324553" width="70" height="30" as="geometry" />
        </mxCell>
        <mxCell id="armBEsBEpPqoog4ruDf--370" value="" style="group" parent="1" vertex="1" connectable="0">
          <mxGeometry x="2573" y="570.0008891324553" width="8" height="28" as="geometry" />
        </mxCell>
        <mxCell id="armBEsBEpPqoog4ruDf--371" value="" style="ellipse;whiteSpace=wrap;html=1;aspect=fixed;" parent="armBEsBEpPqoog4ruDf--370" vertex="1">
          <mxGeometry width="8" height="8" as="geometry" />
        </mxCell>
        <mxCell id="armBEsBEpPqoog4ruDf--372" style="edgeStyle=orthogonalEdgeStyle;rounded=0;orthogonalLoop=1;jettySize=auto;html=1;endArrow=none;startFill=0;" parent="armBEsBEpPqoog4ruDf--370" edge="1">
          <mxGeometry relative="1" as="geometry">
            <mxPoint x="4" y="28" as="targetPoint" />
            <mxPoint x="4" y="8" as="sourcePoint" />
          </mxGeometry>
        </mxCell>
        <mxCell id="armBEsBEpPqoog4ruDf--373" value="&lt;font style=&quot;font-size: 8px;&quot;&gt;precio&lt;/font&gt;" style="text;html=1;align=center;verticalAlign=middle;resizable=0;points=[];autosize=1;strokeColor=none;fillColor=none;rotation=-60;" parent="1" vertex="1">
          <mxGeometry x="2555.000381056767" y="537.0008891324553" width="50" height="30" as="geometry" />
        </mxCell>
        <mxCell id="armBEsBEpPqoog4ruDf--380" style="edgeStyle=orthogonalEdgeStyle;rounded=0;orthogonalLoop=1;jettySize=auto;html=1;entryX=0.25;entryY=1;entryDx=0;entryDy=0;endArrow=none;startFill=0;" parent="1" source="armBEsBEpPqoog4ruDf--374" target="armBEsBEpPqoog4ruDf--6" edge="1">
          <mxGeometry relative="1" as="geometry" />
        </mxCell>
        <mxCell id="armBEsBEpPqoog4ruDf--374" value="alq_cli" style="rhombus;whiteSpace=wrap;html=1;" parent="1" vertex="1">
          <mxGeometry x="2560" y="680" width="80" height="80" as="geometry" />
        </mxCell>
        <mxCell id="armBEsBEpPqoog4ruDf--378" style="edgeStyle=orthogonalEdgeStyle;rounded=0;orthogonalLoop=1;jettySize=auto;html=1;entryX=1;entryY=0;entryDx=0;entryDy=0;endArrow=none;startFill=0;" parent="1" source="armBEsBEpPqoog4ruDf--377" target="armBEsBEpPqoog4ruDf--7" edge="1">
          <mxGeometry relative="1" as="geometry" />
        </mxCell>
        <mxCell id="armBEsBEpPqoog4ruDf--379" style="edgeStyle=orthogonalEdgeStyle;rounded=0;orthogonalLoop=1;jettySize=auto;html=1;entryX=0.25;entryY=1;entryDx=0;entryDy=0;endArrow=none;startFill=0;" parent="1" source="armBEsBEpPqoog4ruDf--377" target="armBEsBEpPqoog4ruDf--5" edge="1">
          <mxGeometry relative="1" as="geometry" />
        </mxCell>
        <mxCell id="armBEsBEpPqoog4ruDf--377" value="alq_emp" style="rhombus;whiteSpace=wrap;html=1;" parent="1" vertex="1">
          <mxGeometry x="2560" y="779" width="80" height="80" as="geometry" />
        </mxCell>
        <mxCell id="armBEsBEpPqoog4ruDf--381" value="(0,n)" style="text;html=1;align=center;verticalAlign=middle;resizable=0;points=[];autosize=1;strokeColor=none;fillColor=none;" parent="1" vertex="1">
          <mxGeometry x="3284.5" y="501" width="60" height="30" as="geometry" />
        </mxCell>
        <mxCell id="armBEsBEpPqoog4ruDf--382" value="(0,n)" style="text;html=1;align=center;verticalAlign=middle;resizable=0;points=[];autosize=1;strokeColor=none;fillColor=none;" parent="1" vertex="1">
          <mxGeometry x="3684.49" y="503" width="60" height="30" as="geometry" />
        </mxCell>
        <mxCell id="armBEsBEpPqoog4ruDf--383" value="(1,1)" style="text;html=1;align=center;verticalAlign=middle;resizable=0;points=[];autosize=1;strokeColor=none;fillColor=none;" parent="1" vertex="1">
          <mxGeometry x="2489" y="686" width="60" height="30" as="geometry" />
        </mxCell>
        <mxCell id="armBEsBEpPqoog4ruDf--384" value="(1,1)" style="text;html=1;align=center;verticalAlign=middle;resizable=0;points=[];autosize=1;strokeColor=none;fillColor=none;" parent="1" vertex="1">
          <mxGeometry x="2503" y="786" width="60" height="30" as="geometry" />
        </mxCell>
        <mxCell id="armBEsBEpPqoog4ruDf--385" value="(1,1)" style="text;html=1;align=center;verticalAlign=middle;resizable=0;points=[];autosize=1;strokeColor=none;fillColor=none;" parent="1" vertex="1">
          <mxGeometry x="2483" y="581" width="60" height="30" as="geometry" />
        </mxCell>
        <mxCell id="armBEsBEpPqoog4ruDf--386" value="(0,n)" style="text;html=1;align=center;verticalAlign=middle;resizable=0;points=[];autosize=1;strokeColor=none;fillColor=none;" parent="1" vertex="1">
          <mxGeometry x="2540" y="503" width="60" height="30" as="geometry" />
        </mxCell>
        <mxCell id="armBEsBEpPqoog4ruDf--387" value="(0,1)" style="text;html=1;align=center;verticalAlign=middle;resizable=0;points=[];autosize=1;strokeColor=none;fillColor=none;" parent="1" vertex="1">
          <mxGeometry x="2939.49" y="499.52" width="60" height="30" as="geometry" />
        </mxCell>
        <mxCell id="armBEsBEpPqoog4ruDf--388" value="(1,1)" style="text;html=1;align=center;verticalAlign=middle;resizable=0;points=[];autosize=1;strokeColor=none;fillColor=none;" parent="1" vertex="1">
          <mxGeometry x="3088" y="893" width="60" height="30" as="geometry" />
        </mxCell>
        <mxCell id="armBEsBEpPqoog4ruDf--390" value="vent_cli" style="rhombus;whiteSpace=wrap;html=1;" parent="1" vertex="1">
          <mxGeometry x="3320" y="909" width="80" height="80" as="geometry" />
        </mxCell>
        <mxCell id="armBEsBEpPqoog4ruDf--391" value="(0,n)" style="text;html=1;align=center;verticalAlign=middle;resizable=0;points=[];autosize=1;strokeColor=none;fillColor=none;" parent="1" vertex="1">
          <mxGeometry x="3360" y="503" width="60" height="30" as="geometry" />
        </mxCell>
        <mxCell id="armBEsBEpPqoog4ruDf--393" value="vent_emp" style="rhombus;whiteSpace=wrap;html=1;" parent="1" vertex="1">
          <mxGeometry x="3721" y="959" width="80" height="80" as="geometry" />
        </mxCell>
        <mxCell id="armBEsBEpPqoog4ruDf--394" value="(0,n)" style="text;html=1;align=center;verticalAlign=middle;resizable=0;points=[];autosize=1;strokeColor=none;fillColor=none;" parent="1" vertex="1">
          <mxGeometry x="3765" y="503" width="60" height="30" as="geometry" />
        </mxCell>
        <mxCell id="armBEsBEpPqoog4ruDf--395" value="(1,1)" style="text;html=1;align=center;verticalAlign=middle;resizable=0;points=[];autosize=1;strokeColor=none;fillColor=none;" parent="1" vertex="1">
          <mxGeometry x="3260" y="919" width="60" height="30" as="geometry" />
        </mxCell>
        <mxCell id="armBEsBEpPqoog4ruDf--396" value="(1,1)" style="text;html=1;align=center;verticalAlign=middle;resizable=0;points=[];autosize=1;strokeColor=none;fillColor=none;" parent="1" vertex="1">
          <mxGeometry x="3260" y="970" width="60" height="30" as="geometry" />
        </mxCell>
        <mxCell id="armBEsBEpPqoog4ruDf--398" value="" style="curved=1;endArrow=none;html=1;rounded=0;startFill=0;" parent="1" edge="1">
          <mxGeometry width="50" height="50" relative="1" as="geometry">
            <mxPoint x="2461" y="640" as="sourcePoint" />
            <mxPoint x="2381" y="909" as="targetPoint" />
            <Array as="points">
              <mxPoint x="2450" y="660" />
              <mxPoint x="2445" y="896" />
              <mxPoint x="2430" y="910" />
              <mxPoint x="2420" y="910" />
            </Array>
          </mxGeometry>
        </mxCell>
        <mxCell id="armBEsBEpPqoog4ruDf--400" value="" style="ellipse;whiteSpace=wrap;html=1;aspect=fixed;fillColor=light-dark(#FFFFFF,#FFFFFF);" parent="1" vertex="1">
          <mxGeometry x="2376" y="905" width="8" height="8" as="geometry" />
        </mxCell>
        <mxCell id="armBEsBEpPqoog4ruDf--402" value="" style="curved=1;endArrow=none;html=1;rounded=0;startFill=0;" parent="1" edge="1">
          <mxGeometry width="50" height="50" relative="1" as="geometry">
            <mxPoint x="3140" y="830" as="sourcePoint" />
            <mxPoint x="3205" y="911" as="targetPoint" />
            <Array as="points">
              <mxPoint x="3151" y="904" />
              <mxPoint x="3191" y="913" />
            </Array>
          </mxGeometry>
        </mxCell>
        <mxCell id="armBEsBEpPqoog4ruDf--403" value="" style="ellipse;whiteSpace=wrap;html=1;aspect=fixed;fillColor=light-dark(#FFFFFF,#FFFFFF);" parent="1" vertex="1">
          <mxGeometry x="3205" y="906" width="8" height="8" as="geometry" />
        </mxCell>
        <mxCell id="armBEsBEpPqoog4ruDf--404" value="(0,n)" style="text;html=1;align=center;verticalAlign=middle;resizable=0;points=[];autosize=1;strokeColor=none;fillColor=none;" parent="1" vertex="1">
          <mxGeometry x="2681" y="1226.5" width="60" height="30" as="geometry" />
        </mxCell>
        <mxCell id="armBEsBEpPqoog4ruDf--405" value="(0,n)" style="text;html=1;align=center;verticalAlign=middle;resizable=0;points=[];autosize=1;strokeColor=none;fillColor=none;" parent="1" vertex="1">
          <mxGeometry x="2837.98" y="1229.5" width="60" height="30" as="geometry" />
        </mxCell>
        <mxCell id="PgyjuIyhRVQf6U4ExdJT-3" value="" style="curved=1;endArrow=none;html=1;rounded=0;startFill=0;" parent="1" edge="1">
          <mxGeometry width="50" height="50" relative="1" as="geometry">
            <mxPoint x="2420" y="1053" as="sourcePoint" />
            <mxPoint x="2440" y="1250" as="targetPoint" />
            <Array as="points">
              <mxPoint x="2500" y="1110" />
              <mxPoint x="2559" y="1256" />
            </Array>
          </mxGeometry>
        </mxCell>
        <mxCell id="PgyjuIyhRVQf6U4ExdJT-4" value="" style="group" parent="1" vertex="1" connectable="0">
          <mxGeometry x="2434" y="1246" width="8" height="28" as="geometry" />
        </mxCell>
        <mxCell id="PgyjuIyhRVQf6U4ExdJT-5" value="" style="ellipse;whiteSpace=wrap;html=1;aspect=fixed;fillColor=light-dark(#FFFFFF,#FFFFFF);" parent="PgyjuIyhRVQf6U4ExdJT-4" vertex="1">
          <mxGeometry width="8" height="8" as="geometry" />
        </mxCell>
        <mxCell id="PgyjuIyhRVQf6U4ExdJT-7" value="&lt;font style=&quot;font-size: 8px;&quot;&gt;monto&lt;/font&gt;" style="text;html=1;align=center;verticalAlign=middle;resizable=0;points=[];autosize=1;strokeColor=none;fillColor=none;rotation=-60;" parent="1" vertex="1">
          <mxGeometry x="3176.000381056767" y="1200.5008891324553" width="50" height="30" as="geometry" />
        </mxCell>
        <mxCell id="PgyjuIyhRVQf6U4ExdJT-8" value="&lt;font style=&quot;font-size: 8px;&quot;&gt;fecha_pago&lt;/font&gt;" style="text;html=1;align=center;verticalAlign=middle;resizable=0;points=[];autosize=1;strokeColor=none;fillColor=none;rotation=-60;" parent="1" vertex="1">
          <mxGeometry x="3216.000381056767" y="1191.0008891324553" width="70" height="30" as="geometry" />
        </mxCell>
        <mxCell id="PgyjuIyhRVQf6U4ExdJT-9" value="&lt;font style=&quot;font-size: 8px;&quot;&gt;fecha_venc&lt;/font&gt;" style="text;html=1;align=center;verticalAlign=middle;resizable=0;points=[];autosize=1;strokeColor=none;fillColor=none;rotation=-60;" parent="1" vertex="1">
          <mxGeometry x="3194.000381056767" y="1192.0008891324553" width="70" height="30" as="geometry" />
        </mxCell>
        <mxCell id="PgyjuIyhRVQf6U4ExdJT-10" value="" style="group" parent="1" vertex="1" connectable="0">
          <mxGeometry x="3236" y="1232" width="8" height="28" as="geometry" />
        </mxCell>
        <mxCell id="PgyjuIyhRVQf6U4ExdJT-11" value="" style="ellipse;whiteSpace=wrap;html=1;aspect=fixed;" parent="PgyjuIyhRVQf6U4ExdJT-10" vertex="1">
          <mxGeometry width="8" height="8" as="geometry" />
        </mxCell>
        <mxCell id="PgyjuIyhRVQf6U4ExdJT-12" style="edgeStyle=orthogonalEdgeStyle;rounded=0;orthogonalLoop=1;jettySize=auto;html=1;endArrow=none;startFill=0;" parent="PgyjuIyhRVQf6U4ExdJT-10" edge="1">
          <mxGeometry relative="1" as="geometry">
            <mxPoint x="4" y="28" as="targetPoint" />
            <mxPoint x="4" y="8" as="sourcePoint" />
          </mxGeometry>
        </mxCell>
        <mxCell id="PgyjuIyhRVQf6U4ExdJT-13" value="" style="group" parent="1" vertex="1" connectable="0">
          <mxGeometry x="3196" y="1232" width="8" height="28" as="geometry" />
        </mxCell>
        <mxCell id="PgyjuIyhRVQf6U4ExdJT-14" value="" style="ellipse;whiteSpace=wrap;html=1;aspect=fixed;" parent="PgyjuIyhRVQf6U4ExdJT-13" vertex="1">
          <mxGeometry width="8" height="8" as="geometry" />
        </mxCell>
        <mxCell id="PgyjuIyhRVQf6U4ExdJT-15" style="edgeStyle=orthogonalEdgeStyle;rounded=0;orthogonalLoop=1;jettySize=auto;html=1;endArrow=none;startFill=0;" parent="PgyjuIyhRVQf6U4ExdJT-13" edge="1">
          <mxGeometry relative="1" as="geometry">
            <mxPoint x="4" y="28" as="targetPoint" />
            <mxPoint x="4" y="8" as="sourcePoint" />
          </mxGeometry>
        </mxCell>
        <mxCell id="PgyjuIyhRVQf6U4ExdJT-16" value="" style="curved=1;endArrow=none;html=1;rounded=0;startFill=0;" parent="1" edge="1">
          <mxGeometry width="50" height="50" relative="1" as="geometry">
            <mxPoint x="3180.5" y="1037" as="sourcePoint" />
            <mxPoint x="3123" y="1250" as="targetPoint" />
            <Array as="points">
              <mxPoint x="3080" y="1156" />
              <mxPoint x="3090" y="1256" />
            </Array>
          </mxGeometry>
        </mxCell>
        <mxCell id="PgyjuIyhRVQf6U4ExdJT-17" value="" style="group" parent="1" vertex="1" connectable="0">
          <mxGeometry x="3120" y="1246" width="8" height="28" as="geometry" />
        </mxCell>
        <mxCell id="PgyjuIyhRVQf6U4ExdJT-18" value="" style="ellipse;whiteSpace=wrap;html=1;aspect=fixed;fillColor=light-dark(#FFFFFF,#FFFFFF);" parent="PgyjuIyhRVQf6U4ExdJT-17" vertex="1">
          <mxGeometry width="8" height="8" as="geometry" />
        </mxCell>
      </root>
    </mxGraphModel>
  </diagram>
</mxfile>
